<svg id="Layer_1" data-name="Layer 1" xmlns="http://www.w3.org/2000/svg" viewBox="0 0 152.42 43.31"><path d="M51.46,6.83a.56.56,0,0,1-.3.07s0,0-.11.07a1,1,0,0,0-.14.49.61.61,0,0,0-.16.37c-.22.33-.5.59-.72.92-.2,0-.24.24-.42.27s-.32.13-.39.32c-.5.1-.8.38-1.28.38s-.57-.32-.66-.76c0-.14,0-.3,0-.42s.08-.09.08-.12,0-.23.05-.32.14-.41.25-.69c0-.06.07-.08.08-.12a17.82,17.82,0,0,1,1-2.15c.09-.2.23-.33.34-.53.32-.63.74-1,1.1-1.62,0-.05.1-.08.1-.14a.25.25,0,0,0,0-.07c.15,0,.16-.27.3-.32,0-.2.17-.25.3-.33s.22-.64.43-.64.25.29.25.3c0,.6-1.62,2.45-1.5,2.45l-.05,0a1.21,1.21,0,0,0-.49.67,0,0,0,0,0,0,0c.1,0,.12-.1.24-.1s.18,0,.3,0,.4.4.58.54a3.41,3.41,0,0,1,.33.86.63.63,0,0,0,.23,0c.12,0,.25,0,.39,0a.23.23,0,0,1,0,.11C51.65,6.54,51.52,6.69,51.46,6.83ZM48.09,9.12c.28,0,.58-.27.88-.27a1,1,0,0,1,.55-.31,4.54,4.54,0,0,0,.59-.71,3.47,3.47,0,0,0,.3-.37c0-.25.14-.32.17-.54a3.29,3.29,0,0,1-1.44-.32,1.53,1.53,0,0,0-.34-.44c-.06,0,0,.13-.08.17a9.82,9.82,0,0,0-.8,1.83,2.62,2.62,0,0,0-.15.68A.29.29,0,0,0,48.09,9.12Zm2.23-3.23c0-.1-.09-.16-.16-.31-.14,0-.18-.11-.31-.11s-.2,0-.33,0c0,.17-.21.14-.21.34s.57.43.87.43c.08,0,.28,0,.31-.07A2.55,2.55,0,0,0,50.32,5.89Z" transform="translate(-0.34 -0.84)" style="fill:#e6002d"/><path d="M51.77,8.23c.06-.05.16-.44.22-.51a1.62,1.62,0,0,0,.27-.56.35.35,0,0,0,.13-.11s0-.09,0-.1.07,0,.09,0a.74.74,0,0,0,.17-.33c.08,0,.13-.09.16-.11s.1-.16.14-.18,0-.1,0-.1a.38.38,0,0,1,.38-.11c.06.1.11.21.17.32-.13.44-.45.61-.64,1-.1.15-.33.54-.44.7s-.26.25-.26.54c.09.1.28,0,.34-.06a2.93,2.93,0,0,0,.93-.48.45.45,0,0,0,.26-.17s.09-.06.12-.1A1.27,1.27,0,0,0,54,7.73a3.67,3.67,0,0,1,.34-.27.63.63,0,0,0,.12-.11,5.89,5.89,0,0,0,.64-.85.7.7,0,0,1,.26-.38c.1-.09.08-.32.3-.27s.1.22.21.27a3.82,3.82,0,0,1-.68,1.23c-.3.32-.43.87-.73,1.19,0,.24-.07.48-.25.53,0,.21-.07.24,0,.43-.18.11-.22.4-.3.65l-.12.32c0,.18-.19.08-.13.33s.27-.08.38-.11a2.18,2.18,0,0,1,.42-.24,13.49,13.49,0,0,1,1.74-.88c.18-.07.42-.06.59-.22.33.07.47-.21.68,0,0,.36-.16.44-.38.49a4,4,0,0,0-.89.26,2.18,2.18,0,0,0-.59.27c0,.1-.24,0-.26.1-.35.2-.7.46-1.06.64s-.66.44-1,.65c-.13.17-.15.49-.3.65a2.89,2.89,0,0,1-.25.7c-.06.25-.19.43-.25.69-.18.1-.18.43-.3.59-.18.45-.39.88-.59,1.29a1,1,0,0,1-.13.27.31.31,0,0,1,0,.06c0,.08,0,.3-.17.27,0,.31-.26.31-.25.65-.12.05-.16.19-.3.21a2.34,2.34,0,0,1-.09.38c-.22.21-.35.55-.63.69a1,1,0,0,0-.13.33c-.24,0-.32.25-.47.37s-.66.23-.92.05a3.13,3.13,0,0,1-.18-1.23,5.87,5.87,0,0,0,.18-.75c.21-.31.29-.78.5-1.07,0-.26.19-.35.26-.54a.79.79,0,0,1,.3-.44c0-.14.09-.27.12-.42.27-.09.3-.49.51-.65a4.61,4.61,0,0,0,.29-.43c.13-.21.38-.37.51-.65a6.44,6.44,0,0,0,.76-.64l.26-.22.12-.1s.13,0,.18-.06,0-.13.08-.15.11,0,.17-.06a3.07,3.07,0,0,0,.51-.38c.2-.55.4-1.1.59-1.67,0-.13.13-.16.13-.31s0-.26.12-.33.1-.2.13-.32c-.15,0-.23.14-.34.21s-.23.1-.33.17,0,0-.05,0-.21.13-.3.17a1.66,1.66,0,0,0-.33.16c-.09,0-.12,0-.17.05a1.53,1.53,0,0,1-.85-.11C51.52,8.85,51.71,8.54,51.77,8.23Zm.73,3.86a2.88,2.88,0,0,0-.39.32,4.61,4.61,0,0,0-.76.64,7.83,7.83,0,0,0-1,1.19c-.14.09-.19.29-.3.42s-.12.15-.17.22-.08.19-.17.22a10.52,10.52,0,0,1-.46,1,7.83,7.83,0,0,0-.43,1.13,1.82,1.82,0,0,0,0,1.12c.33.05.45-.21.71-.27.09-.3.37-.36.47-.64.15,0,.17-.25.21-.32s.19-.21.26-.33a3.76,3.76,0,0,0,.38-.75c.16-.11.2-.34.3-.53s.2-.35.29-.54.16-.39.25-.6a2.2,2.2,0,0,0,.26-.63c.18-.19.2-.58.38-.77a4.08,4.08,0,0,1,.34-.85s0-.11,0-.11S52.59,12.11,52.5,12.09Z" transform="translate(-0.34 -0.84)" style="fill:#e6002d"/><path d="M59.62,9.5a1.93,1.93,0,0,1,0-.24c0-.57.38-.95.52-1.42.32-.65.93-1.67,1.32-2.28,0,0,.09,0,.09-.06s0,0,0-.08.17-.21.22-.29a5.69,5.69,0,0,1,.38-.7c.08-.1.12,0,.12-.19s0,0,0,0,.31-.42.45-.53.19-.15.21-.33c0,0,0,0,0,0l-.14,0s-.08,0-.12,0,0,0,0,0c-.32.06-1.27,0-1.27.26s.21.25.21.66c-.33-.09-.33-.59-.76-.59-.12,0-.1-.22-.18-.27.1-.76,1.4-.33,2.21-.65l.4,0c.33,0,.67,0,1,0a4.36,4.36,0,0,1,2.52.71,2.26,2.26,0,0,1,.38,1.13c-.07.21-.11.65-.17.82a1.34,1.34,0,0,1-.3.37,1,1,0,0,1-.51.71c-.1.3-.48.52-.59.59s-.09,0-.12.06-.3.38-.43.43-.62.37-1,.59-.44.24-.72.38c-.07,0-.26.21-.44.21h0c-.05,0-.08.11-.12.11h0c-.08,0-.32.21-.52.21h0c-.22.22-.54.22-.81.33,0,0-.07.1-.08.1a2.47,2.47,0,0,0-.43.11,2.63,2.63,0,0,1-.29.11.05.05,0,0,0-.06-.06h-.12c-.17,0,0-.18-.23-.18s-.22.07-.31.07A.18.18,0,0,1,59.62,9.5Zm3-4.91a5.82,5.82,0,0,1-.56.81c-.1.31-.49.83-.6,1.14s-.37.65-.59.81c0,.2-.18.2-.18.3s0,.06,0,.08a1.34,1.34,0,0,0-.19.44.05.05,0,0,0,0,0,.5.5,0,0,1,.39-.34S61,8,61,8s-.08.28-.14.28-.32.57-.33.65-.15.13-.15.18,0,0,.07,0c.76-.3,1.53-.51,2.28-.86.1,0,.16-.13.27-.13a.12.12,0,0,1,.07,0,3.45,3.45,0,0,1,1.1-.59A5.32,5.32,0,0,1,65,6.92c.28-.16.44-.48.76-.59v0s.63-.77.86-1.09c0-.18.1-.53.1-.7s-.14-.31-.14-.45V4c-.1-.07-.3-.27-.39-.27s-.25-.17-.41-.21a7.39,7.39,0,0,0-2-.23h-.3v.06c0,.42-.31.42-.38.75-.08.1,0,.35-.13.44h-.07C62.77,4.53,62.72,4.58,62.64,4.59Z" transform="translate(-0.34 -0.84)" style="fill:#e6002d"/><path d="M66.67,8.23c.06-.05.16-.44.22-.51a1.62,1.62,0,0,0,.27-.56.28.28,0,0,0,.13-.11s0-.09,0-.1.07,0,.09,0a.74.74,0,0,0,.17-.33c.08,0,.13-.09.16-.11s.1-.16.14-.18,0-.1,0-.1a.38.38,0,0,1,.38-.11c.06.1.11.21.17.32-.13.44-.45.61-.64,1-.1.15-.33.54-.44.7s-.26.25-.26.54c.09.1.28,0,.34-.06a2.93,2.93,0,0,0,.93-.48.45.45,0,0,0,.26-.17s.09-.06.12-.1a1.27,1.27,0,0,0,.13-.11,3.67,3.67,0,0,1,.34-.27.63.63,0,0,0,.12-.11A5.89,5.89,0,0,0,70,6.5a.7.7,0,0,1,.26-.38c.1-.09.08-.32.3-.27s.1.22.21.27a3.82,3.82,0,0,1-.68,1.23c-.3.32-.43.87-.73,1.19,0,.24-.07.48-.25.53,0,.21-.07.24,0,.43-.18.11-.22.4-.3.65l-.12.32c0,.18-.19.08-.13.33s.27-.08.38-.11a2.18,2.18,0,0,1,.42-.24,14.17,14.17,0,0,1,1.74-.88c.18-.07.42-.06.59-.22.33.07.47-.21.68,0,0,.36-.16.44-.38.49a4,4,0,0,0-.89.26,2.18,2.18,0,0,0-.59.27c0,.1-.24,0-.26.1-.35.2-.7.46-1.06.64s-.66.44-1,.65c-.13.17-.15.49-.3.65a2.89,2.89,0,0,1-.25.7c-.06.25-.19.43-.25.69-.18.1-.18.43-.3.59-.18.45-.39.88-.59,1.29a1,1,0,0,1-.13.27.31.31,0,0,1,0,.06c0,.08,0,.3-.17.27,0,.31-.26.31-.25.65-.12.05-.16.19-.3.21a2.34,2.34,0,0,1-.09.38c-.22.21-.35.55-.63.69a1,1,0,0,0-.13.33c-.24,0-.32.25-.47.37s-.66.23-.92.05a3.13,3.13,0,0,1-.18-1.23,5.87,5.87,0,0,0,.18-.75c.21-.31.29-.78.5-1.07,0-.26.19-.35.26-.54a.79.79,0,0,1,.3-.44c0-.14.09-.27.12-.42.27-.09.3-.49.51-.65a4.61,4.61,0,0,0,.29-.43c.13-.21.38-.37.51-.65a6.44,6.44,0,0,0,.76-.64l.26-.22.12-.1s.13,0,.18-.06,0-.13.08-.15.11,0,.17-.06a3.07,3.07,0,0,0,.51-.38c.2-.55.4-1.1.59-1.67,0-.13.13-.16.13-.31s0-.26.12-.33.1-.2.13-.32c-.15,0-.23.14-.34.21s-.23.1-.33.17,0,0,0,0-.21.13-.3.17a1.66,1.66,0,0,0-.33.16c-.09,0-.12,0-.17.05a1.53,1.53,0,0,1-.85-.11C66.42,8.85,66.61,8.54,66.67,8.23Zm.73,3.86a2.88,2.88,0,0,0-.39.32,5.06,5.06,0,0,0-.76.64,7.83,7.83,0,0,0-1,1.19c-.14.09-.19.29-.3.42s-.11.15-.17.22-.08.19-.17.22a10.52,10.52,0,0,1-.46,1,7.83,7.83,0,0,0-.43,1.13,1.82,1.82,0,0,0,0,1.12c.33.05.45-.21.71-.27.09-.3.37-.36.47-.64.15,0,.17-.25.21-.32s.19-.21.26-.33a3.76,3.76,0,0,0,.38-.75c.16-.11.2-.34.3-.53s.2-.35.29-.54.16-.39.25-.6a2.2,2.2,0,0,0,.26-.63c.18-.19.2-.58.38-.77a4.08,4.08,0,0,1,.34-.85s0-.11,0-.11S67.49,12.11,67.4,12.09Z" transform="translate(-0.34 -0.84)" style="fill:#e6002d"/><path d="M75.41,8.3c-.15.07-.19.16-.43.29s-.23.13-.38.28c-.33.29-.74.33-1.08.6-.25,0-.57.14-.77-.12a1.38,1.38,0,0,1,.13-.63s0-.1,0-.12,0-.09.05-.15.06,0,.08-.06a1,1,0,0,1,.09-.21c0-.06.08-.1.12-.17s0-.09,0-.1l.09-.11c.09-.16.36-.82.46-1.07a6.75,6.75,0,0,0-1.38,1.19,1.46,1.46,0,0,0-.26.34c-.2.15-.26.45-.44.61s-.13.24-.26.27-.16.19-.26.27-.27.15-.38-.06A.93.93,0,0,1,71,8.82a1.41,1.41,0,0,0,.26-.43c.13-.32.49-1,.6-1.33,0-.19.19-1.13.24-1.27s.16-.17.37-.12a2.58,2.58,0,0,1-.11,1.39c.06,0,0,.05,0,.11h0c0,.16.07-.08.13-.06s0-.14.14-.1c0-.14.17-.19.21-.32.1,0,.13-.06.21-.11a2,2,0,0,0,.34-.27s.09-.13.13-.16a5.88,5.88,0,0,0,.72-.54c.15-.09.52-.31.73-.16a.73.73,0,0,1-.21.8c0,.21-.18.17-.17.38-.12,0-.1.24-.21.27a3.55,3.55,0,0,1-.52,1,1.67,1.67,0,0,1-.17.38c-.12,0-.08.26-.17.33.07.15.16-.12.26-.11s.23,0,.3-.05.11-.06.21-.1a3.14,3.14,0,0,0,1-.55.83.83,0,0,0,.32-.2c.1-.09.15-.17.22-.24s.19-.17.25-.21.3-.29.56-.3c0,.53-.06.74-.19.75s-.22.07-.23.11A3.46,3.46,0,0,1,75.41,8.3Z" transform="translate(-0.34 -0.84)" style="fill:#e6002d"/><path d="M81.35,7.63c-.15.1-.32.38-.46.47s-.11.17-.26.27-.27.25-.42.35a1.3,1.3,0,0,0-.25.1c-.09.06-.11.12-.22.11-.15.19-.42.13-.54.36a6.92,6.92,0,0,0-.81.09c0-.12-.18,0-.25-.06S78,9.24,78,9.11s0-.24-.12-.21-.16.13-.26.15a2.41,2.41,0,0,0-.42.27c-.06.06-.29.11-.42.22a1.37,1.37,0,0,1-.55.16s-.12-.11-.21,0a1.23,1.23,0,0,1-.21-1.08A1.77,1.77,0,0,0,76,8c.13-.15.21-.37.33-.54.22-.34.5-.59.73-.91a1.22,1.22,0,0,0,.38-.43c.22,0,.28-.22.42-.32s.38-.13.47-.32c.39-.07.63-.32,1-.38s.44.47.34.91c-.07.11-.13.23-.25.27s-.09.08-.09.16-.1,0-.17.06c-.15-.28.12-.41.13-.65-.21-.14-.36.11-.64,0a2.41,2.41,0,0,1-.42.22c-.12.08-.2.23-.34.26s-.39.47-.68.6a5.87,5.87,0,0,1-.37.59c-.11,0-.14.19-.22.27s-.08.25-.21.27a5.39,5.39,0,0,0-.25,1c.25.19.48-.09.72-.1,0-.1.07-.07.12-.11s.08-.07.13-.1.26-.06.25-.23c.11,0,.21,0,.26,0s.08-.18.21-.16A5.08,5.08,0,0,0,78,7.71c.09-.13.21-.2.21-.43.34-.14.35-.7.85-.65.1.06.1.24.16.33,0,.33-.2.34-.21.65a1.17,1.17,0,0,0-.29.42,1,1,0,0,0-.26.27c-.06.08-.22.11-.16.33s.18,0,.21.15.18,0,.25,0,.25,0,.38-.1l.43-.22L80.34,8a1.09,1.09,0,0,1,.35-.33c.17-.12.32-.28.53-.42C81.22,7.25,81.32,7.64,81.35,7.63Z" transform="translate(-0.34 -0.84)" style="fill:#e6002d"/><path d="M87.33,8.65c-.43.13-.48.38-.9.52s-.88.43-1.27.16c-.23-.27-.08-.79,0-1.17.09,0,0-.21.14-.23s0-.27.08-.21a.71.71,0,0,1,.13-.48,2.75,2.75,0,0,1,.17-.43,1.1,1.1,0,0,0,.16-.43c-.24,0-.33.26-.51.43A10.94,10.94,0,0,0,84.36,8a2.55,2.55,0,0,1-.35.38,5.12,5.12,0,0,1-.55.91c-.23-.07-.25.15-.46.11,0-.15-.15-.27,0-.38s0-.32.13-.37a4,4,0,0,0,.29-.76c.16-.17.2-.5.35-.69s.12-.56.16-.86c-.18-.13-.38.15-.51.26a1.47,1.47,0,0,0-.42.44,1.34,1.34,0,0,0-.43.48c-.21.05-.23.35-.46.37a3.5,3.5,0,0,1-.59.76c0,.1-.09.16-.13.22s0,.2-.13.21c0,.2-.19.27-.25.42-.24,0-.43.16-.55,0a1,1,0,0,0,0-.17.29.29,0,0,1,.09-.21A11.93,11.93,0,0,0,81,7.93c.07-.28.22-.48.29-.75a1,1,0,0,0,.12-.35c0-.31.12-.45.23-1,.08-.25-.17-.07-.13-.27s.18-.2.17-.43c.15,0,.13-.26.21-.38s.08,0,.08-.1h.09c.42.18.2,1.1,0,1.4,0,.13,0,.26,0,.38a1.51,1.51,0,0,0-.09.38c0,.16-.12.32-.12.56s.12-.1.21,0c0-.1.16-.09.17-.22a.72.72,0,0,0,.38-.37A2.78,2.78,0,0,0,83,6.43c.13-.13.31-.19.39-.38.38-.07.54-.43.93-.48.31.35.09,1,0,1.51,0,.12.12-.07.17-.06a.3.3,0,0,1,.13-.16c0-.16.19-.23.29-.32.15-.27.43-.34.56-.65.32-.12.49-.44.8-.59.33.22.19.9,0,1.19-.11.57-.42.89-.55,1.44a2.08,2.08,0,0,0-.17.86c.32.2.54-.19.84-.21.05,0,.05-.12.14-.11s.14-.07.21-.1a2.4,2.4,0,0,0,.38-.23c.22-.15.16-.31.41-.41.24-.25.92-1.27.8-.11C88.07,7.81,87.62,8.51,87.33,8.65Z" transform="translate(-0.34 -0.84)" style="fill:#e6002d"/><path d="M89.44,8.73c0-.08-.29.09-.3.15a5.88,5.88,0,0,1-.72.33c0,.12-.12,0-.21,0l-.13.12c-.22,0-.45,0-.63,0,0-.14-.18-.13-.17-.31a1,1,0,0,1,0-.49,3,3,0,0,1,.44-.81c.27-.29.58-1,.87-1.24,0-.13.13-.17.21-.22S89,6.2,89,6.08a1.47,1.47,0,0,0,.21-.22c.08,0,.06-.21.21-.16s.12.25.22.33c0,.33-.31.39-.38.69-.22.1-.27.44-.43.6s-.43.66-.62.81-.35.32-.38.65c.17.15.44,0,.55-.16a2,2,0,0,0,.81-.37c.23-.16.44-.28.67-.45s.17-.25.32-.36.36-.27.58-.29a.84.84,0,0,1-.45.94c-.06.11-.21.17-.28.27S89.54,8.49,89.44,8.73Zm1.77-6.3a2.73,2.73,0,0,1,.14.81c-.12.19-.42.09-.56,0C90.78,2.78,90.78,2.33,91.21,2.43Z" transform="translate(-0.34 -0.84)" style="fill:#e6002d"/><path d="M95.25,7.75a1.48,1.48,0,0,1-.74.72l-.4.27s-.07.12-.08.12-.23.05-.26.2c-.18-.06-.17.11-.3.1s-.36.15-.48.31-.25-.07-.25,0-.2,0-.21.1a1.66,1.66,0,0,0-.77.15,4.65,4.65,0,0,1-1-.06c-.14-.12-.24-.27-.43-.32,0-.16,0-.33-.16-.38a5.31,5.31,0,0,1,0-.7c0-.22.17-.53.2-.76.24-.32.41-.74.67-1,.48-.59,1.08-1.29,2-1.07a5.9,5.9,0,0,1,.38,1.34c-.09,0,0,.19,0,.27s-.33.44-.6.16c0-.09,0-.18,0-.27s.19-.29.17-.6a1,1,0,0,0-.08-.31A.47.47,0,0,0,92.24,6c0,.12,0,.12,0,.06s-.06.09-.09.1-.08,0-.12,0-.1.16-.21.11-.12.1-.17.16,0,.26-.17.17c0,.18-.09.23-.17.32-.05.27-.3.28-.34.59-.1,0-.15.13-.21.21-.09.43-.3.49-.18,1a.92.92,0,0,0,.55.54,3.35,3.35,0,0,0,1.32-.22,3,3,0,0,0,.42-.15c.3-.09.5-.38.8-.47A4.61,4.61,0,0,1,94.39,8c.24-.16.42-.47.69-.6S95.37,7.27,95.25,7.75Z" transform="translate(-0.34 -0.84)" style="fill:#e6002d"/><path d="M99.75,6.54c-.13.25-.27.46-.39.7,0,0-.09.11-.12.17s-.15.14-.17.21,0,.25-.13.21c0,.34-.3.42-.34.75,0,.08-.09.1-.17.11s0,.21,0,.22c0,.19-.15.16-.21.26,0,.4-.22.44-.26.76a1.38,1.38,0,0,0-.17.32c-.1,0-.22.17-.29,0-.09,0-.08-.08-.08-.16a2.16,2.16,0,0,1,.33-1.24c0-.17.12-.2.17-.31A.63.63,0,0,1,98,8.21a3.38,3.38,0,0,1,.34-.75c.1-.23.19-.48.3-.76a1.38,1.38,0,0,1,.21-.48,12.66,12.66,0,0,1,.59-1.29c.07-.09.08-.26.17-.32.08-.25.23-.39.3-.64.07-.08.16-.11.16-.27a2.51,2.51,0,0,0,.38-.54c.13,0,.11-.23.21-.27a3.2,3.2,0,0,1,.22-.27c.06-.09.11-.18.16-.27s.1-.21.21-.22A4.71,4.71,0,0,1,102.71,1c.05,0,.06-.1.12-.11h.68a1.3,1.3,0,0,0,.38.22,3.59,3.59,0,0,0,.38.53,1.33,1.33,0,0,0,.14.54,12.22,12.22,0,0,1-.14,1.57,1.94,1.94,0,0,0-.25.8,1.79,1.79,0,0,0-.29.64,10.39,10.39,0,0,0-.73,1,1.11,1.11,0,0,0-.46.31c-.09,0-.12.14-.25.11s-.09.18-.21.16a2.75,2.75,0,0,1-1.62.38c0-.11-.15,0-.21-.06s-.11-.11-.21-.1S99.84,6.67,99.75,6.54Zm1.35,0a5.85,5.85,0,0,0,1.06-.42,6.31,6.31,0,0,0,.84-.71,4.2,4.2,0,0,0,.8-1.77c.15-.15.16-.47.22-.7s0-.23-.08-.32c.15,0,.09-.25.08-.32a2.41,2.41,0,0,0-.34-.81c-.13-.07-.29-.1-.38-.21s-.28.07-.47,0a.21.21,0,0,0-.12.16c-.17,0-.25.18-.39.27s-.24.23-.42.26c-.42.7-1.08,1.11-1.44,1.89a2.53,2.53,0,0,0-.46,1,3.06,3.06,0,0,0-.43.65,2.94,2.94,0,0,1-.38.75c0,.29-.11.39-.17.59.15,0,.12-.21.22-.27a.71.71,0,0,1,.21-.27,6.23,6.23,0,0,0,.3-.69.88.88,0,0,0,.21-.22.82.82,0,0,0,.21-.27c.11-.22.3-.33.38-.59s.2-.42.42-.49.23-.41.47-.48c0,.1.15.09.17.21a.81.81,0,0,1-.38.65c-.08.27-.29.41-.42.6a3.19,3.19,0,0,1-.43.59c0,.17-.13.22-.21.31S100,6,100,6.27C100.22,6.55,100.67,6.53,101.1,6.54Z" transform="translate(-0.34 -0.84)" style="fill:#e6002d"/><path d="M105.26,8.73c0-.08-.29.09-.3.15a6.66,6.66,0,0,1-.72.33c0,.12-.13,0-.22,0a.68.68,0,0,1-.12.12c-.22,0-.45,0-.63,0,0-.14-.18-.13-.17-.31a1.07,1.07,0,0,1,0-.49,2.74,2.74,0,0,1,.45-.81c.27-.29.58-1,.87-1.24,0-.13.12-.17.21-.22s.13-.15.17-.27a1.47,1.47,0,0,0,.21-.22c.08,0,0-.21.21-.16s.12.25.21.33c0,.33-.31.39-.38.69-.22.1-.26.44-.43.6s-.42.66-.62.81-.34.32-.38.65c.18.15.45,0,.56-.16a2,2,0,0,0,.8-.37c.23-.16.44-.28.67-.45s.18-.25.33-.36.36-.27.58-.29a.83.83,0,0,1-.46.94c-.06.11-.2.17-.27.27S105.36,8.49,105.26,8.73ZM107,2.43a2.46,2.46,0,0,1,.13.81c-.11.19-.41.09-.55,0C106.6,2.78,106.6,2.33,107,2.43Z" transform="translate(-0.34 -0.84)" style="fill:#e6002d"/><path d="M109.62,6.15c-.09.28-.32.38-.38.7-.26.07-.32.41-.59.48a1.76,1.76,0,0,1-.55.7c.06.07,0,.26.13.27s0,.2.12.21v.07a1,1,0,0,0,.13.47c0,.38.09.63.09,1v.13c.27,0,.36-.21.63-.21v.08c0,.27-.16.31-.3.4a1.17,1.17,0,0,0-.42,1v.05a12.54,12.54,0,0,1-.81,2.9,10.4,10.4,0,0,1-.71,1.56,2.7,2.7,0,0,0-.26.54c-.27.22-.4.63-.67.86a2.17,2.17,0,0,1-.17.21,2.85,2.85,0,0,0-.26.23s0,.07,0,.1-.14.09-.21.16-.12.22-.23.22h0c-.07.14-.21.19-.29.32a5.09,5.09,0,0,1-1.16.38c-.35,0-.53-.25-.79-.38-.06-.09,0-.17-.09-.27s-.25-.24-.25-.34v-.08h0a2.27,2.27,0,0,1-.22-1.19,2.82,2.82,0,0,1,.22-1.23v0c0-.17.08-.22.08-.39v0c.15-.1.15-.4.3-.49a5.54,5.54,0,0,1,1.82-2.15c0-.09.33-.27.3-.27h0l.08,0c.08,0,.1-.18.16-.23a3.34,3.34,0,0,1,.63-.32,1.34,1.34,0,0,1,.59-.33c.1,0,.31-.19.47-.27s.18,0,.21,0a.1.1,0,0,1,0,0,8,8,0,0,1,.89-.39v-.2a2.36,2.36,0,0,0-.42-1.52c-.14,0-.24.17-.42.17s-.23-.17-.29-.33.1-.65.34-.65h0c.33-.19.61-.84,1-1a.39.39,0,0,1,.3-.27,6.24,6.24,0,0,0,.68-1s-.05-.06-.08-.06a.41.41,0,0,0-.22.1h-.06c-.12,0-.16.06-.28.06-.35.2-.83.24-1.1.54-.23,0-.34.21-.55.27s-.08.21-.17.27-.65,0-.68-.33c0-.18.11-.32.32-.32,0,0,.1,0,.1-.08v0c.43-.39,1.15-.39,1.57-.76.28,0,.42-.16.69-.16h.07a.06.06,0,0,1,.06,0H109c.06,0,.13-.12.2-.12h.07c.09,0,.2-.1.39-.1s.31.2.31.49S109.72,5.86,109.62,6.15Zm-1.69,4.9a.15.15,0,0,1-.11,0h-.15c-.09,0-.1.09-.16.11s-.16,0-.22.06a.63.63,0,0,1-.31.21h0c-.08,0-.41.33-.74.33a1.81,1.81,0,0,1-.68.48s0,.11-.05.11h0s0,.09-.06.11a4,4,0,0,0-.6.38,1.18,1.18,0,0,1-.59.43c0,.18-.16.11-.16.27-.25.26-.38.53-.6.75a7.58,7.58,0,0,1-.34.76,8.34,8.34,0,0,0-.33.8V16c0,.29-.09.55-.09.82a1.65,1.65,0,0,0,.59,1.29c.12.09.19.27.38.27a7,7,0,0,0,1.06-.37c.39-.36.75-.76,1.14-1.13a6.55,6.55,0,0,0,1-1.77c.2,0,.18-.42.39-.54a2.21,2.21,0,0,1,.29-.81c0-.52.29-.79.3-1.34a7.54,7.54,0,0,0,.29-1.34Z" transform="translate(-0.34 -0.84)" style="fill:#e6002d"/><path d="M113.31,6.15c-.1.28-.33.38-.38.7-.26.07-.33.41-.59.48a1.78,1.78,0,0,1-.56.7c.06.07,0,.26.14.27s0,.2.12.21v.07a1.15,1.15,0,0,0,.12.47c0,.38.09.63.09,1v.13c.27,0,.36-.21.64-.21v.08c0,.27-.16.31-.3.4a1.15,1.15,0,0,0-.43,1v.05a12.51,12.51,0,0,1-.8,2.9,12.88,12.88,0,0,1-.71,1.56,2.25,2.25,0,0,0-.26.54c-.27.22-.41.63-.68.86a2.17,2.17,0,0,1-.17.21,2.73,2.73,0,0,0-.25.23s0,.07-.05.1-.13.09-.21.16-.11.22-.23.22h0c-.07.14-.22.19-.3.32a5,5,0,0,1-1.15.38c-.35,0-.53-.25-.79-.38-.07-.09,0-.17-.09-.27s-.26-.24-.26-.34a.54.54,0,0,1,0-.08h0a2.15,2.15,0,0,1-.23-1.19,2.62,2.62,0,0,1,.23-1.23v0c0-.17.08-.22.08-.39v0c.15-.1.15-.4.3-.49a5.45,5.45,0,0,1,1.82-2.15c0-.09.32-.27.3-.27h0l.08,0c.08,0,.1-.18.16-.23a3.46,3.46,0,0,1,.64-.32,1.34,1.34,0,0,1,.59-.33c.1,0,.31-.19.47-.27s.17,0,.21,0a.1.1,0,0,1,0,0,8,8,0,0,1,.89-.39v-.2a2.36,2.36,0,0,0-.42-1.52c-.15,0-.24.17-.43.17s-.23-.17-.29-.33.11-.65.35-.65h0c.33-.19.61-.84,1-1a.38.38,0,0,1,.29-.27,5.18,5.18,0,0,0,.68-1,.09.09,0,0,0-.08-.06.5.5,0,0,0-.22.1h-.06c-.11,0-.16.06-.27.06-.35.2-.84.24-1.1.54-.23,0-.35.21-.56.27s-.08.21-.17.27-.64,0-.68-.33c0-.18.12-.32.32-.32,0,0,.11,0,.11-.08v0c.42-.39,1.14-.39,1.57-.76.28,0,.41-.16.69-.16h.07s0,0,.06,0h.07c.06,0,.12-.12.19-.12H113c.09,0,.21-.1.4-.1s.31.2.31.49S113.41,5.86,113.31,6.15Zm-1.69,4.9a.16.16,0,0,1-.12,0h-.15c-.09,0-.1.09-.16.11s-.16,0-.21.06a.64.64,0,0,1-.32.21h0c-.08,0-.42.33-.74.33a1.89,1.89,0,0,1-.68.48s0,.11,0,.11h-.06s0,.09-.06.11a4.39,4.39,0,0,0-.59.38,1.22,1.22,0,0,1-.59.43c0,.18-.17.11-.17.27-.24.26-.38.53-.6.75-.06.32-.25.47-.33.76a8.36,8.36,0,0,0-.34.8V16c0,.29-.09.55-.09.82a1.66,1.66,0,0,0,.6,1.29c.12.09.19.27.37.27a6.61,6.61,0,0,0,1.06-.37c.4-.36.76-.76,1.15-1.13a6.83,6.83,0,0,0,1-1.77c.19,0,.18-.42.39-.54a1.9,1.9,0,0,1,.29-.81c0-.52.28-.79.3-1.34a8.54,8.54,0,0,0,.29-1.34Z" transform="translate(-0.34 -0.84)" style="fill:#e6002d"/><path d="M118.85,7.63c-.15.1-.32.38-.46.47s-.12.17-.27.27-.26.25-.41.35a1.39,1.39,0,0,0-.26.1c-.09.06-.1.12-.21.11-.15.19-.42.13-.55.36a6.92,6.92,0,0,0-.81.09c0-.12-.17,0-.24-.06s-.17-.08-.18-.21,0-.24-.13-.21-.15.13-.25.15a2.09,2.09,0,0,0-.42.27c-.07.06-.29.11-.43.22a1.32,1.32,0,0,1-.54.16s-.13-.11-.22,0a1.27,1.27,0,0,1-.21-1.08,1.42,1.42,0,0,0,.21-.59,4.93,4.93,0,0,0,.34-.54c.21-.34.49-.59.72-.91a1.22,1.22,0,0,0,.38-.43c.22,0,.28-.22.42-.32s.38-.13.47-.32c.39-.07.64-.32,1-.38s.44.47.33.91c-.07.11-.12.23-.24.27s-.09.08-.09.16-.11,0-.17.06c-.16-.28.11-.41.12-.65-.21-.14-.36.11-.63,0a2.49,2.49,0,0,1-.43.22c-.12.08-.19.23-.33.26s-.4.47-.68.6a5.94,5.94,0,0,1-.38.59c-.1,0-.13.19-.21.27s-.09.25-.21.27a6.38,6.38,0,0,0-.26,1c.26.19.49-.09.73-.1,0-.1.07-.07.12-.11a1.27,1.27,0,0,0,.12-.1c.08-.06.27-.06.26-.23.1,0,.2,0,.25,0s.08-.18.21-.16a3.66,3.66,0,0,0,.17-.59c.09-.13.21-.2.21-.43.35-.14.36-.7.85-.65.11.06.11.24.17.33,0,.33-.2.34-.21.65a1.06,1.06,0,0,0-.29.42.84.84,0,0,0-.26.27c-.06.08-.23.11-.17.33s.19,0,.21.15.18,0,.26,0,.25,0,.38-.1.29-.14.42-.22l.76-.42a1.34,1.34,0,0,1,.35-.33c.18-.12.33-.28.53-.42C118.71,7.25,118.82,7.64,118.85,7.63Z" transform="translate(-0.34 -0.84)" style="fill:#e6002d"/><path d="M124,8.2a3.91,3.91,0,0,1-2,1.21A1.92,1.92,0,0,1,120.62,9c-.2,0-.27-.34-.25-.54a2.14,2.14,0,0,1,0-.76s0,0,0-.06.17-.65.27-.7.09-.33.21-.39c.1-.3.34-.43.46-.69a1.92,1.92,0,0,0,.64-.49c.31,0,.43-.17.72-.16a.58.58,0,0,1,.12.48c0,.09,0,.07,0,.11s0,.27-.09.37c0,.44-.33.92-.35,1.31-.12.08-.21.32-.29.44s-.21.17-.26.31c-.2.09-.31.3-.51.39a1.08,1.08,0,0,0,.47.25h.09a3,3,0,0,0,1.53-.75,1.7,1.7,0,0,1,.34-.23,1,1,0,0,1,.33-.15A2.58,2.58,0,0,1,124,8.2ZM122,6c-.25.18-.4.52-.63.65a4.52,4.52,0,0,0-.57,1.58.76.76,0,0,0,.35-.11l.25-.21a6.86,6.86,0,0,0,.77-1.37,1.19,1.19,0,0,0,.18-.54s0-.1,0-.1S122.06,5.92,122,6Z" transform="translate(-0.34 -0.84)" style="fill:#e6002d"/><path d="M128.94,6.54c-.12.25-.27.46-.39.7,0,0-.09.11-.12.17s-.15.14-.17.21,0,.25-.13.21c0,.34-.3.42-.34.75,0,.08-.08.1-.17.11s0,.21,0,.22c0,.19-.15.16-.21.26,0,.4-.22.44-.26.76a1.07,1.07,0,0,0-.16.32c-.11,0-.23.17-.3,0-.09,0-.08-.08-.08-.16a2.24,2.24,0,0,1,.33-1.24c0-.17.13-.2.17-.31a.63.63,0,0,1,.13-.33,3.38,3.38,0,0,1,.34-.75c.1-.23.19-.48.3-.76a1.38,1.38,0,0,1,.21-.48,12.66,12.66,0,0,1,.59-1.29c.07-.09.08-.26.17-.32.08-.25.23-.39.3-.64.07-.08.16-.11.16-.27a2.51,2.51,0,0,0,.38-.54c.13,0,.11-.23.22-.27a1.94,1.94,0,0,1,.21-.27l.17-.27c.14,0,.09-.21.21-.22A4.56,4.56,0,0,1,131.9,1c.06,0,.06-.1.13-.11h.68a1.14,1.14,0,0,0,.37.22,4.51,4.51,0,0,0,.38.53,1.52,1.52,0,0,0,.14.54,12.22,12.22,0,0,1-.14,1.57,1.94,1.94,0,0,0-.25.8,2,2,0,0,0-.29.64,10.39,10.39,0,0,0-.73,1,1.11,1.11,0,0,0-.46.31c-.09,0-.12.14-.25.11s-.09.18-.21.16a2.75,2.75,0,0,1-1.62.38c0-.11-.15,0-.21-.06s-.1-.11-.21-.1Zm1.35,0a5.85,5.85,0,0,0,1.06-.42,5.74,5.74,0,0,0,.84-.71A4.33,4.33,0,0,0,133,3.64c.14-.15.15-.47.21-.7s-.05-.23-.08-.32c.15,0,.09-.25.08-.32a2.41,2.41,0,0,0-.34-.81c-.13-.07-.29-.1-.38-.21s-.28.07-.46,0a.2.2,0,0,0-.13.16c-.16,0-.25.18-.39.27s-.23.23-.42.26c-.42.7-1.07,1.11-1.44,1.89a2.53,2.53,0,0,0-.46,1,3.06,3.06,0,0,0-.43.65,2.94,2.94,0,0,1-.38.75c0,.29-.11.39-.16.59.14,0,.11-.21.21-.27a.71.71,0,0,1,.21-.27,6.23,6.23,0,0,0,.3-.69.88.88,0,0,0,.21-.22.82.82,0,0,0,.21-.27c.11-.22.3-.33.38-.59s.21-.42.43-.49.22-.41.46-.48c0,.1.15.09.17.21a.81.81,0,0,1-.38.65c-.08.27-.29.41-.42.6a3.19,3.19,0,0,1-.43.59c0,.17-.13.22-.21.31s-.22.13-.17.38C129.41,6.55,129.86,6.53,130.29,6.54Z" transform="translate(-0.34 -0.84)" style="fill:#e6002d"/><path d="M138.1,7.63c-.15.1-.32.38-.46.47s-.11.17-.26.27-.27.25-.42.35a1.3,1.3,0,0,0-.25.1c-.09.06-.11.12-.21.11-.15.19-.43.13-.55.36a6.92,6.92,0,0,0-.81.09c0-.12-.18,0-.25-.06s-.17-.08-.18-.21,0-.24-.12-.21-.16.13-.25.15a2.14,2.14,0,0,0-.43.27c-.06.06-.29.11-.42.22a1.37,1.37,0,0,1-.55.16s-.12-.11-.21,0a1.23,1.23,0,0,1-.21-1.08,1.58,1.58,0,0,0,.21-.59c.13-.15.21-.37.34-.54.21-.34.49-.59.72-.91a1.22,1.22,0,0,0,.38-.43c.22,0,.28-.22.42-.32s.38-.13.47-.32c.39-.07.63-.32,1-.38s.44.47.34.91c-.07.11-.13.23-.25.27s-.09.08-.09.16-.1,0-.16.06c-.16-.28.11-.41.12-.65-.21-.14-.36.11-.64,0a2.41,2.41,0,0,1-.42.22c-.12.08-.19.23-.33.26s-.4.47-.68.6c-.12.21-.25.4-.38.59s-.14.19-.21.27-.09.25-.22.27a5.39,5.39,0,0,0-.25,1c.25.19.48-.09.72-.1,0-.1.07-.07.12-.11s.08-.07.13-.1.26-.06.25-.23c.11,0,.21,0,.26,0s.08-.18.21-.16a5.08,5.08,0,0,0,.17-.59c.09-.13.21-.2.21-.43.34-.14.35-.7.85-.65.1.06.1.24.16.33,0,.33-.2.34-.21.65a1.17,1.17,0,0,0-.29.42.93.93,0,0,0-.25.27c-.06.08-.23.11-.17.33s.18,0,.21.15.18,0,.26,0,.24,0,.38-.1.29-.14.42-.22l.76-.42a1.2,1.2,0,0,1,.35-.33c.18-.12.33-.28.53-.42A2.43,2.43,0,0,0,138.1,7.63Z" transform="translate(-0.34 -0.84)" style="fill:#e6002d"/><path d="M136.79,8.73a3,3,0,0,0,0-.53c.35-.12.77-.67,1.06-.87s.88-.88,1.27-1.13c.22-.16.4-.35.6-.51a1.59,1.59,0,0,1,.59-.37c.05.09.11.18.17.27a.75.75,0,0,1-.12.48,5.76,5.76,0,0,1-.3.61s0,.09,0,.1A7.11,7.11,0,0,0,139.52,8a.84.84,0,0,0-.29.48c.1.16.25-.08.42,0,.37-.11.77-.24,1.14-.37a12.57,12.57,0,0,0,1.26-.78c0,.23,0,.53,0,.46s-.23.23-.31.28-.11.1-.14.1l-.12.05c-.14.08-.2.21-.32.28a.25.25,0,0,1-.13.06,2.64,2.64,0,0,1-.29.15c-.1,0-.12.06-.26.11a1.8,1.8,0,0,0-.59.26,5.78,5.78,0,0,1-1.52.31c-.17,0-.33-.15-.51-.16a1.22,1.22,0,0,0-.43-.38.9.9,0,0,1,0-.46c-.13,0-.13.08-.21.1s-.16,0-.17.12S136.79,8.77,136.79,8.73Zm2-.51a3.18,3.18,0,0,0,.56-1.05c.11-.06.15-.44.25-.49s0-.2.09-.22,0-.13-.09-.11-.07.09-.08.16c-.31.1-.35.51-.67.6a11.43,11.43,0,0,1-1.12,1.08c.21.22.35.52.72.46A.72.72,0,0,0,138.76,8.22Z" transform="translate(-0.34 -0.84)" style="fill:#e6002d"/><path d="M144.83,8.56a5.41,5.41,0,0,0-.45.36,3.42,3.42,0,0,1-.38.28.87.87,0,0,0-.19.1c-.05,0-.06.07-.16.1l-.3.11c-.13.05,0,0-.17,0a.76.76,0,0,0-.26.12c-.18-.11-.5-.05-.76-.06,0-.11-.18-.12-.3-.17a2.13,2.13,0,0,1-.37-.8,2.54,2.54,0,0,1,.08-.86,5.79,5.79,0,0,1,.29-.91c.22-.44.36-1,.6-1.35-.06-.09-.21-.08-.34,0l-.5.11c-.28,0-.64.2-.73-.17,0-.21.23-.11.3-.21s.28,0,.34-.16c.44,0,.85-.11,1.27-.17.07,0,.13-.1.17-.15s0-.12,0-.16.25-.28.34-.44.31-.57.46-.86.14-.47.43-.43,0,.38.13.48a9,9,0,0,0-.72,1.46c0,.11.21,0,.3.06,1-.11,2-.17,3-.27.11.07.26.16.15.32l-.39,0A4.94,4.94,0,0,1,146,5c-.19.14-.35,0-.59.16a1.12,1.12,0,0,1-.43,0c-.29.16-.3,0-.6.1a.25.25,0,0,1-.24,0,1,1,0,0,1-.26.11c-.1,0-.32-.23-.47,0,0,.11-.15,0-.21,0-.09.32-.32.48-.42.81s-.19.52-.42.7c0,.14-.12.21-.17.32s-.06.29-.17.37a2.41,2.41,0,0,0,0,1.19.78.78,0,0,0,.25.21s0,.05,0,.06c.28.16.67,0,1-.06a1,1,0,0,0,.48-.25l.25-.15c.07,0,.12-.13.2-.17a1.22,1.22,0,0,1,.26-.06c0-.12.2-.09.32-.11C144.92,8.33,144.75,8.44,144.83,8.56Z" transform="translate(-0.34 -0.84)" style="fill:#e6002d"/><path d="M149.92,7.63c-.15.1-.31.38-.46.47s-.11.17-.26.27-.26.25-.41.35a1.39,1.39,0,0,0-.26.1c-.09.06-.11.12-.21.11-.15.19-.42.13-.55.36a6.92,6.92,0,0,0-.81.09c0-.12-.18,0-.25-.06s-.16-.08-.17-.21,0-.24-.13-.21-.16.13-.25.15a2.45,2.45,0,0,0-.43.27c-.06.06-.29.11-.42.22a1.33,1.33,0,0,1-.55.16s-.12-.11-.21,0a1.23,1.23,0,0,1-.21-1.08,1.42,1.42,0,0,0,.21-.59c.13-.15.21-.37.34-.54.21-.34.49-.59.72-.91A1.22,1.22,0,0,0,146,6.1c.22,0,.28-.22.42-.32s.38-.13.47-.32c.39-.07.64-.32,1-.38s.44.47.33.91c-.07.11-.12.23-.25.27,0,.12-.08.08-.08.16s-.11,0-.17.06c-.16-.28.11-.41.12-.65-.21-.14-.36.11-.63,0a2.92,2.92,0,0,1-.43.22c-.12.08-.19.23-.33.26s-.4.47-.68.6c-.12.21-.25.4-.38.59s-.13.19-.21.27-.09.25-.21.27a6.38,6.38,0,0,0-.26,1c.26.19.49-.09.72-.1,0-.1.07-.07.13-.11a1.27,1.27,0,0,0,.12-.1c.08-.06.27-.06.26-.23.1,0,.2,0,.25,0s.08-.18.21-.16a5.08,5.08,0,0,0,.17-.59c.09-.13.21-.2.21-.43.35-.14.36-.7.85-.65.11.06.11.24.17.33,0,.33-.21.34-.21.65a1.08,1.08,0,0,0-.3.42.93.93,0,0,0-.25.27c-.06.08-.23.11-.17.33s.19,0,.21.15.18,0,.26,0,.25,0,.38-.1.29-.14.42-.22l.76-.42a1.34,1.34,0,0,1,.35-.33c.18-.12.33-.28.53-.42A2.43,2.43,0,0,0,149.92,7.63Z" transform="translate(-0.34 -0.84)" style="fill:#e6002d"/><path d="M9.1,16.53V36.26H5.63V16.53H.34V13.27h14v3.26Z" transform="translate(-0.34 -0.84)"/><path d="M26.24,21.76h3.37v14.5H26.24V34.74a6.42,6.42,0,0,1-9.42-.24,8.07,8.07,0,0,1-2-5.54,7.84,7.84,0,0,1,2-5.43,6.29,6.29,0,0,1,4.88-2.18,6.17,6.17,0,0,1,4.54,2.09ZM18.29,29a5,5,0,0,0,1.12,3.4,3.67,3.67,0,0,0,2.89,1.33,3.87,3.87,0,0,0,3-1.28A5,5,0,0,0,26.45,29a5,5,0,0,0-1.14-3.37,3.81,3.81,0,0,0-3-1.29,3.68,3.68,0,0,0-2.89,1.31A4.78,4.78,0,0,0,18.29,29Z" transform="translate(-0.34 -0.84)"/><path d="M37.19,11.11V26.45l4.72-4.69h4.5l-6.3,6.09,6.76,8.41H42.52l-4.79-6.12-.54.54v5.58H33.84V11.11Z" transform="translate(-0.34 -0.84)"/><path d="M61.75,29.8H51.36a4.36,4.36,0,0,0,1.16,2.84,3.51,3.51,0,0,0,2.63,1,3.39,3.39,0,0,0,2.07-.6,8.55,8.55,0,0,0,1.84-2.2l2.83,1.57a11.06,11.06,0,0,1-1.39,1.92,7.29,7.29,0,0,1-1.56,1.31,6.47,6.47,0,0,1-1.8.75,8.77,8.77,0,0,1-2.1.24,6.84,6.84,0,0,1-5.22-2.09,7.81,7.81,0,0,1-2-5.57,8,8,0,0,1,1.9-5.57,6.58,6.58,0,0,1,5.1-2.1,6.51,6.51,0,0,1,5.06,2A8.05,8.05,0,0,1,61.77,29Zm-3.44-2.74a3.2,3.2,0,0,0-3.38-2.68,3.6,3.6,0,0,0-1.15.18,3.55,3.55,0,0,0-1,.54,3.37,3.37,0,0,0-.75.84,3.91,3.91,0,0,0-.48,1.12Z" transform="translate(-0.34 -0.84)"/><path d="M89,30.68H79.13l-2.56,5.58H72.83L84.21,11.82l11,24.44h-3.8Zm-1.42-3.26L84.15,19.6l-3.57,7.82Z" transform="translate(-0.34 -0.84)"/><path d="M98.6,21.76,102.4,30l4.1-9.61L110.62,30l3.76-8.28h3.75l-7.6,15.59-4-9.34-4.08,9.34L94.83,21.76Z" transform="translate(-0.34 -0.84)"/><path d="M130.6,21.76H134v14.5H130.6V34.74a6.47,6.47,0,0,1-4.46,1.94,6.38,6.38,0,0,1-5-2.18,8.06,8.06,0,0,1-2-5.54,7.83,7.83,0,0,1,2-5.43,6.29,6.29,0,0,1,4.88-2.18,6.2,6.2,0,0,1,4.55,2.09Zm-8,7.2a5,5,0,0,0,1.12,3.4,3.67,3.67,0,0,0,2.89,1.33,3.87,3.87,0,0,0,3-1.28A5,5,0,0,0,130.8,29a5,5,0,0,0-1.14-3.37,3.81,3.81,0,0,0-3-1.29,3.68,3.68,0,0,0-2.89,1.31A4.78,4.78,0,0,0,122.64,29Z" transform="translate(-0.34 -0.84)"/><path d="M143,33.57l-6.52-11.81h3.89l4.43,8.34L149,21.76h3.78L141.2,44.16h-3.83Z" transform="translate(-0.34 -0.84)"/></svg>