<svg xmlns="http://www.w3.org/2000/svg" viewBox="0 0 128 128" width="48px" height="48px"><path fill="#fff" d="M109,104H19c-5.5,0-10-4.5-10-10V34c0-5.5,4.5-10,10-10h90c5.5,0,10,4.5,10,10v60C119,99.5,114.5,104,109,104z"/><path fill="#cadbea" d="M47.4,82L50,71c0.4-1.5,2-2.8,3.6-2.8h2.1c9.1,0,16.3-1.8,21.3-5.6c5.1-3.7,7.6-8.6,7.6-14.6c0-2.7-0.5-4.9-1.4-6.7c-0.9-1.8-2.3-3.2-4.1-4.3c-1.8-1.1-4-1.9-6.5-2.4c-2.5-0.5-5.4-0.7-8.8-0.7H48.2c-1.6,0-3.2,1.3-3.6,2.8L34.1,82c-0.4,1.5,0.7,2.8,2.3,2.8h7.5C45.4,84.8,47.1,83.5,47.4,82z M53.5,55.8l2.3-9.6c0.4-1.5,2-2.8,3.6-2.8h2.5c2.9,0,5,0.5,6.5,1.4c1.5,0.9,2.2,2.4,2.2,4.4c0,3-1.1,5.3-3.4,6.9c-2.3,1.6-5.4,2.4-9.4,2.4h-1.9C54.2,58.6,53.2,57.3,53.5,55.8z"/><path fill="#7aa3c4" d="M87.9,46c1,1.8,1.4,4,1.4,6.7c0,6-2.5,10.9-7.6,14.6c-5.1,3.7-12.2,5.6-21.3,5.6h-2.1c-1.6,0-3.2,1.3-3.6,2.8l-2.6,10.9c-0.4,1.5-2,2.8-3.6,2.8h-4.7l-0.4,1.8C43,92.7,44.1,94,45.7,94h7.5c1.6,0,3.2-1.3,3.6-2.8l2.6-10.9c0.4-1.5,2-2.8,3.6-2.8H65c9.1,0,16.2-1.8,21.3-5.6c5.1-3.7,7.6-8.6,7.6-14.6c0-2.7-0.5-4.9-1.4-6.7c-0.9-1.8-2.3-3.2-4.1-4.3C88.3,46.1,88.1,46.1,87.9,46z"/><path fill="#444b54" d="M109,107H19c-7.2,0-13-5.8-13-13V34c0-7.2,5.8-13,13-13h90c7.2,0,13,5.8,13,13v60C122,101.2,116.2,107,109,107z M19,27c-3.9,0-7,3.1-7,7v60c0,3.9,3.1,7,7,7h90c3.9,0,7-3.1,7-7V34c0-3.9-3.1-7-7-7H19z"/><path fill="#444b54" d="M9,52c-0.2,0-0.4,0-0.6-0.1c-0.2,0-0.4-0.1-0.6-0.2c-0.2-0.1-0.3-0.2-0.5-0.3c-0.2-0.1-0.3-0.2-0.4-0.4c-0.1-0.1-0.3-0.3-0.4-0.5c-0.1-0.2-0.2-0.3-0.3-0.5c-0.1-0.2-0.1-0.4-0.2-0.6C6,49.4,6,49.2,6,49c0-0.2,0-0.4,0.1-0.6c0-0.2,0.1-0.4,0.2-0.6c0.1-0.2,0.2-0.3,0.3-0.5c0.1-0.2,0.2-0.3,0.4-0.4s0.3-0.3,0.4-0.4c0.2-0.1,0.3-0.2,0.5-0.3c0.2-0.1,0.4-0.1,0.6-0.2c1-0.2,2,0.1,2.7,0.8c0.1,0.1,0.3,0.3,0.4,0.4c0.1,0.2,0.2,0.3,0.3,0.5c0.1,0.2,0.1,0.4,0.2,0.6c0,0.2,0.1,0.4,0.1,0.6c0,0.2,0,0.4-0.1,0.6c0,0.2-0.1,0.4-0.2,0.6c-0.1,0.2-0.2,0.4-0.3,0.5c-0.1,0.2-0.2,0.3-0.4,0.5C10.6,51.7,9.8,52,9,52z"/></svg>