<svg xmlns="http://www.w3.org/2000/svg" viewBox="0 0 40 40" width="16px" height="16px"><path fill="#8bb7f0" d="M2.066,31.5c-0.316,0-0.563-0.246-0.563-0.56l0.029-0.096l0.126-0.552l-0.021-0.002L7.735,2.162 l0.053-0.219C7.839,1.723,8.022,1.5,8.316,1.5h14.332c2.094,0,4.356,0.966,5.905,2.521c0.884,0.888,1.937,2.381,1.928,4.454 C30.463,12.941,27.604,20.5,17,20.5c-1.039,0-2.653,0.009-2.653,0.009c-0.655,0.003-1.152,0.427-1.331,1.134L10.866,31.5H2.066z"/><path fill="#4e7ab5" d="M22.649,2c1.936,0,4.115,0.932,5.551,2.374c0.817,0.821,1.79,2.198,1.782,4.099 C29.964,12.754,27.21,20,17,20c-1.024,0-1.661,0.003-2.283,0.007l-0.373,0.002c-0.885,0.004-1.58,0.584-1.821,1.543L10.463,31 H2.067c-0.019,0-0.04-0.006-0.052-0.023c0.003-0.01,0.005-0.021,0.007-0.032l0.23-1.122l-0.001,0L8.189,2.429l0.086-0.373 C8.278,2.042,8.293,2,8.317,2H22.649 M22.649,1H8.317C7.813,1,7.41,1.358,7.301,1.831L7.296,1.828L1.031,30.732l0.014,0.001 c-0.015,0.068-0.042,0.134-0.042,0.207C1.003,31.532,1.479,32,2.067,32h9.202l2.233-10.236c0.111-0.443,0.392-0.753,0.849-0.756 C15.105,21.005,15.774,21,17,21c11,0,13.963-8,13.981-12.523C31,4,26.411,1,22.649,1L22.649,1z"/><path fill="#c2e8ff" d="M10.064,38.5c-0.316,0-0.564-0.246-0.564-0.56l0.029-0.096l0.126-0.552l-0.021-0.002l6.098-28.11 l0.058-0.237C15.841,8.723,16.024,8.5,16.319,8.5h14.342c2.097,0,4.361,0.967,5.911,2.523c0.885,0.888,1.937,2.38,1.928,4.452 C38.481,19.941,35.619,27.5,25.009,27.5c-0.881,0-2.2,0.009-2.2,0.009c-0.682,0.003-1.274,0.469-1.442,1.134l-2.388,9.479 c-0.057,0.222-0.256,0.378-0.485,0.378H10.064z"/><path fill="#7496c4" d="M30.661,9c1.939,0,4.12,0.933,5.557,2.376c0.817,0.82,1.789,2.197,1.782,4.097 C37.982,19.754,35.226,27,25.008,27c-0.875,0-1.237,0.002-1.646,0.005l-0.556,0.003c-0.91,0.005-1.702,0.626-1.925,1.511 L18.493,38h-8.428c-0.019,0-0.04-0.006-0.053-0.023c0.003-0.01,0.005-0.021,0.007-0.031l0.23-1.122l-0.001,0l5.941-27.392 l0.087-0.375C16.28,9.042,16.295,9,16.319,9H30.661 M30.661,8H16.319c-0.505,0-0.907,0.358-1.017,0.831l-0.005-0.002L9.028,37.732 l0.014,0.001C9.027,37.802,9,37.867,9,37.941C9,38.532,9.476,39,10.065,39h8.428c0.458,0,0.858-0.311,0.97-0.756l2.389-9.48 c0.112-0.443,0.504-0.753,0.96-0.756C23.567,28.005,23.781,28,25.008,28C36.016,28,38.981,20,39,15.477 C39.018,11,34.426,8,30.661,8L30.661,8z"/><g><path fill="#578dc9" d="M15.734,9.173l0.056-0.229C15.841,8.723,16.024,8.5,16.319,8.5 c4.363,0.003,12.182,0.009,14.162,0.013C30.446,12.985,27.572,20.5,17,20.5c-1.227,0-3.695,0.009-3.717,0.01L15.734,9.173z"/><path fill="#4e7ab5" d="M16.319,9c4.049,0.003,11.099,0.008,13.646,0.012C29.726,13.334,26.792,20,17,20 c-0.98,0-2.242,0.003-3.096,0.006l2.29-10.596l0.082-0.354C16.28,9.042,16.295,9,16.319,9 M16.319,8 c-0.505,0-0.907,0.358-1.017,0.831l-0.005-0.002l-2.796,12.936c0.111-0.443,0.392-0.753,0.849-0.756C14.105,21.005,15.774,21,17,21 c11,0,13.963-8,13.982-12.523c0.001-0.157-0.017-0.309-0.028-0.462C30.856,8.01,16.319,8,16.319,8L16.319,8z"/></g></svg>