<svg id="Layer_1" data-name="Layer 1" xmlns="http://www.w3.org/2000/svg" viewBox="0 0 144.44 32.26"><path d="M.87,15.11a1.63,1.63,0,0,1,0-.38c0-.91.6-1.51.83-2.26.52-1,1.49-2.65,2.1-3.63,0,0,.14,0,.14-.09s0-.09,0-.13.26-.33.35-.46A7.94,7.94,0,0,1,4.85,7c.13-.16.2-.07.2-.3,0,0,0,0,0,0,.19,0,.49-.68.71-.85.06-.25.31-.24.34-.52,0,0,0,0-.06,0s-.14,0-.21,0-.14,0-.19,0-.06,0-.07,0c-.51.09-2,0-2,.41,0,.21.33.39.33,1-.52-.14-.52-.94-1.2-.94-.2,0-.16-.34-.28-.43.15-1.21,2.21-.52,3.5-1,.21,0,.42,0,.65,0,.52,0,1.06,0,1.6,0a7,7,0,0,1,4,1.14,3.55,3.55,0,0,1,.6,1.8c-.11.32-.17,1-.27,1.3a2,2,0,0,1-.47.58,1.5,1.5,0,0,1-.82,1.12,2.23,2.23,0,0,1-.94.95c-.08.05-.14,0-.19.09s-.48.6-.69.69-1,.59-1.54.93c-.37.21-.72.39-1.15.6-.12.06-.42.34-.7.34H5.93c-.07,0-.12.18-.18.18H5.67c-.13,0-.51.34-.83.34H4.77c-.35.34-.86.34-1.28.51,0,0-.11.17-.14.17-.18.07-.46.07-.67.17s-.3.13-.46.18c0-.09-.05-.11-.1-.11l-.2,0c-.27,0,0-.28-.36-.28s-.34.1-.49.1A.24.24,0,0,1,.87,15.11Zm4.8-7.8a11.65,11.65,0,0,1-.89,1.28c-.17.5-.78,1.32-1,1.81-.35.27-.59,1-.94,1.29,0,.32-.3.32-.3.48s0,.09,0,.12-.3.45-.3.7a.15.15,0,0,0,0,.07A.79.79,0,0,1,3,12.51c.07,0,.07.14.07.19s-.13.45-.23.45-.5.9-.53,1-.24.21-.24.28,0,.06.12.06c1.2-.48,2.44-.82,3.63-1.37.15-.07.25-.2.42-.2a.23.23,0,0,1,.11,0A5.58,5.58,0,0,1,8.06,12a7.85,7.85,0,0,1,1.36-1c.44-.27.69-.77,1.21-.94,0,0,0-.06,0-.08s1-1.21,1.36-1.72c0-.29.15-.84.15-1.11s-.21-.5-.21-.73V6.36c-.17-.11-.48-.43-.63-.43-.31,0-.39-.26-.65-.33a11.61,11.61,0,0,0-3.22-.36H6.94v.09c0,.66-.5.66-.6,1.19-.13.16-.07.55-.21.7L6,7.2C5.88,7.2,5.79,7.29,5.67,7.31Z" style="fill:#e6002d"/><path d="M12.07,13.09c.1-.09.25-.71.35-.82a2.38,2.38,0,0,0,.43-.89.44.44,0,0,0,.21-.17.88.88,0,0,0,.06-.17s.11,0,.14,0a1.2,1.2,0,0,0,.27-.51c.14,0,.21-.14.26-.18s.16-.25.21-.28.05-.16.07-.16a.62.62,0,0,1,.61-.18,4.89,4.89,0,0,1,.26.51c-.19.7-.71,1-1,1.53-.16.25-.53.88-.7,1.13s-.42.39-.4.85c.14.16.43.06.53-.09a4.66,4.66,0,0,0,1.49-.76.75.75,0,0,0,.4-.27,1.4,1.4,0,0,1,.2-.16c.05-.07.14-.11.2-.18a6,6,0,0,1,.54-.43,1.51,1.51,0,0,0,.2-.17,11.18,11.18,0,0,0,1-1.36,1.18,1.18,0,0,1,.4-.6c.17-.15.14-.5.48-.43s.17.36.34.43a6.15,6.15,0,0,1-1.08,2c-.48.51-.67,1.39-1.15,1.88,0,.4-.11.77-.41.86.06.32-.11.37-.05.68-.3.17-.35.64-.48,1-.07.18-.14.34-.2.51s-.31.13-.21.52.44-.12.61-.18a3.11,3.11,0,0,1,.67-.37,23.08,23.08,0,0,1,2.76-1.41,2.23,2.23,0,0,0,.94-.34c.53.11.74-.33,1.08,0,.06.57-.25.7-.6.77a6.91,6.91,0,0,0-1.42.43,3.18,3.18,0,0,0-.94.42c0,.16-.38,0-.41.16-.56.31-1.12.73-1.68,1a17.19,17.19,0,0,0-1.54,1c-.21.27-.24.79-.48,1a4.4,4.4,0,0,1-.4,1.11c-.1.41-.3.69-.4,1.1-.28.16-.28.68-.47.95-.3.71-.62,1.39-.94,2a1.32,1.32,0,0,1-.21.43s-.06.09-.06.09-.06.48-.28.43c0,.5-.41.5-.39,1-.18.09-.26.3-.48.34a2.77,2.77,0,0,1-.14.6c-.35.34-.56.88-1,1.11a1.76,1.76,0,0,0-.2.52c-.37,0-.5.39-.74.58-.48.13-1.05.38-1.47.09a5.31,5.31,0,0,1-.28-2A10.36,10.36,0,0,0,6.84,27c.34-.5.46-1.25.8-1.71,0-.41.29-.55.4-.85a1.26,1.26,0,0,1,.48-.7,6.75,6.75,0,0,0,.2-.68c.43-.14.47-.76.81-1,.16-.23.31-.41.46-.67s.61-.59.82-1a12.13,12.13,0,0,0,1.2-1c.14-.13.27-.25.41-.36a1.56,1.56,0,0,0,.2-.16c.07-.05.19,0,.28-.09s.07-.21.12-.25.19,0,.27-.09a4.72,4.72,0,0,0,.81-.6c.33-.87.65-1.75.94-2.65,0-.22.21-.25.21-.5.2,0,.09-.41.2-.52s.15-.32.2-.52c-.24-.07-.37.24-.54.34s-.36.16-.53.27,0,.07-.07.07-.34.2-.48.27a3.17,3.17,0,0,0-.53.25c-.14,0-.18.05-.27.09a2.45,2.45,0,0,1-1.34-.18A2.7,2.7,0,0,1,12.07,13.09Zm1.16,6.13c-.19.18-.45.28-.61.51a7.87,7.87,0,0,0-1.21,1A11.88,11.88,0,0,0,9.8,22.64c-.23.14-.31.46-.48.67s-.18.24-.27.34-.12.31-.26.36c-.2.59-.51,1.08-.75,1.62a11.09,11.09,0,0,0-.67,1.8,2.94,2.94,0,0,0,.07,1.78c.53.07.72-.34,1.14-.43.14-.48.59-.57.74-1,.24-.06.27-.41.34-.52s.29-.34.4-.52a5.54,5.54,0,0,0,.61-1.19c.26-.18.32-.55.47-.85s.33-.56.47-.86.26-.62.4-.94a3.41,3.41,0,0,0,.41-1c.28-.3.32-.91.6-1.21a6.14,6.14,0,0,1,.55-1.35c0-.07,0-.18-.07-.18S13.37,19.25,13.23,19.22Z" style="fill:#e6002d"/><path d="M26,13.2c-.23.11-.29.25-.67.46s-.36.2-.62.45c-.52.46-1.16.51-1.71.94-.39,0-.91.23-1.22-.18a2.34,2.34,0,0,1,.21-1s0-.16,0-.18,0-.14.07-.25.1,0,.13-.09.07-.23.14-.34.14-.16.2-.26,0-.15,0-.16a.86.86,0,0,0,.14-.18c.14-.25.57-1.3.74-1.69a10.55,10.55,0,0,0-2.2,1.88,2.45,2.45,0,0,0-.42.54c-.31.25-.41.71-.7,1-.23,0-.2.37-.41.43s-.25.3-.41.42c-.35-.05-.43.23-.61-.09a1.5,1.5,0,0,1,.26-.85,2.67,2.67,0,0,0,.41-.68c.21-.51.78-1.51.95-2.12.06-.3.31-1.8.38-2s.25-.27.59-.19a4.09,4.09,0,0,1-.17,2.2c.1.06,0,.09,0,.18H21c0,.25.11-.12.21-.09s0-.23.23-.16c.07-.23.26-.3.33-.51.16,0,.21-.09.34-.18a3.23,3.23,0,0,0,.53-.43c.07,0,.14-.2.21-.25A10,10,0,0,0,24,8.93c.24-.15.82-.5,1.15-.27a1.14,1.14,0,0,1-.33,1.28c0,.34-.28.27-.27.61-.2,0-.15.37-.34.42a6.4,6.4,0,0,1-.81,1.68,2.78,2.78,0,0,1-.28.6c-.2,0-.13.41-.27.52.12.23.26-.2.41-.18s.36.06.48-.07.18-.11.33-.16c.73-.39,1-.32,1.56-.87a1.43,1.43,0,0,0,.5-.32,2,2,0,0,0,.35-.4,4.47,4.47,0,0,0,.41-.32c.27-.17.48-.46.88-.48.07.84-.08,1.18-.29,1.2s-.35.1-.36.17A5.55,5.55,0,0,1,26,13.2Z" style="fill:#e6002d"/><path d="M35.41,12.13c-.24.16-.5.61-.73.75s-.18.27-.42.43-.42.39-.66.55-.28.07-.4.16-.17.19-.34.18c-.24.3-.67.21-.87.57-.49.07-.83,0-1.29.14,0-.18-.28,0-.39-.09,0-.21-.27-.12-.28-.34-.13,0,0-.37-.2-.34s-.25.22-.41.25a3.21,3.21,0,0,0-.67.43,7,7,0,0,0-.67.36,2.49,2.49,0,0,1-.87.25s-.2-.18-.34-.09a1.94,1.94,0,0,1-.33-1.71,2.52,2.52,0,0,0,.33-1c.21-.23.34-.58.54-.85a18.14,18.14,0,0,1,1.15-1.44,2.15,2.15,0,0,0,.6-.7c.35,0,.45-.34.67-.5s.6-.21.74-.51c.62-.11,1-.5,1.62-.61.49.13.7.75.53,1.46-.11.16-.2.36-.39.43,0,.18-.14.12-.14.25s-.17.07-.27.09c-.25-.45.18-.64.2-1-.34-.21-.58.18-1,.09a3.32,3.32,0,0,1-.68.34c-.19.14-.3.38-.53.43-.38.28-.63.75-1.08.94a10.18,10.18,0,0,1-.6.95c-.17.07-.21.3-.34.42s-.14.4-.33.43a8.33,8.33,0,0,0-.41,1.53c.41.31.77-.14,1.15-.16,0-.16.11-.1.2-.18a1.46,1.46,0,0,0,.19-.16c.13-.08.42-.08.41-.35.17,0,.32,0,.41-.09s.12-.29.33-.25a8.59,8.59,0,0,0,.27-.94c.14-.2.33-.32.33-.68.55-.23.57-1.12,1.35-1,.17.09.17.37.27.51,0,.54-.33.55-.34,1a1.64,1.64,0,0,0-.46.67,1.41,1.41,0,0,0-.41.43c-.1.12-.36.18-.27.52-.07.3.3.09.34.25.11-.08.28,0,.41-.08s.39,0,.6-.16.46-.21.67-.33l1.21-.68a1.94,1.94,0,0,1,.56-.52c.28-.19.52-.44.84-.67A3,3,0,0,0,35.41,12.13Z" style="fill:#e6002d"/><path d="M44.92,13.75c-.69.22-.76.61-1.43.84s-1.39.68-2,.25c-.37-.43-.13-1.27-.07-1.87.14,0,.07-.32.21-.36s-.07-.43.12-.34a1.21,1.21,0,0,1,.21-.76,5.07,5.07,0,0,1,.27-.68,2,2,0,0,0,.27-.69c-.4,0-.54.42-.82.69a17.26,17.26,0,0,0-1.47,2,4.52,4.52,0,0,1-.55.61,8.22,8.22,0,0,1-.87,1.44c-.37-.11-.4.23-.74.18,0-.25-.24-.43,0-.61,0-.25,0-.52.21-.59a6.92,6.92,0,0,0,.47-1.21c.25-.27.32-.8.54-1.1.06-.5.2-.89.27-1.37-.3-.2-.6.25-.81.42a2.28,2.28,0,0,0-.68.7,2.16,2.16,0,0,0-.67.76c-.34.08-.37.56-.74.59a5.5,5.5,0,0,1-.94,1.21c0,.16-.14.25-.2.34s-.07.32-.21.34c-.06.32-.29.43-.39.68-.38-.07-.69.25-.89-.07a1.22,1.22,0,0,0,0-.27.58.58,0,0,1,.14-.34,17.73,17.73,0,0,0,.75-1.89c.11-.44.33-.76.46-1.19a2,2,0,0,0,.18-.55c.09-.5.2-.73.37-1.57.12-.39-.27-.11-.21-.43S36,8.55,36,8.2c.23,0,.19-.43.33-.61s.13,0,.13-.16h.14c.66.29.32,1.75-.07,2.23,0,.19-.07.41-.07.6a2.37,2.37,0,0,0-.15.61c0,.25-.19.5-.19.89,0,.21.19-.16.34-.07.06-.16.25-.15.27-.36a1.08,1.08,0,0,0,.6-.59,4.92,4.92,0,0,0,.67-.51c.2-.22.49-.31.62-.61.6-.11.85-.68,1.47-.77.49.56.14,1.61.07,2.41,0,.19.18-.11.27-.09a.45.45,0,0,1,.21-.27c.08-.25.29-.35.46-.5.24-.42.69-.55.88-1,.52-.19.79-.71,1.28-.94.52.35.29,1.42,0,1.88-.18.91-.67,1.43-.88,2.3A3.3,3.3,0,0,0,42.07,14c.52.31.87-.3,1.35-.33.07-.06.07-.2.21-.18s.22-.11.33-.16a5.32,5.32,0,0,0,.61-.36c.35-.25.25-.5.66-.66.37-.39,1.45-2,1.26-.18C46.09,12.42,45.38,13.54,44.92,13.75Z" style="fill:#e6002d"/><path d="M48.28,13.88c0-.13-.46.14-.48.25a10,10,0,0,1-1.15.51c-.07.2-.19,0-.33.09l-.2.18c-.35.07-.72,0-1,.07,0-.23-.28-.21-.27-.5a1.68,1.68,0,0,1,0-.78,4.49,4.49,0,0,1,.7-1.28c.43-.47.92-1.55,1.38-2,.05-.2.2-.27.34-.34,0-.25.21-.25.27-.43a3.68,3.68,0,0,0,.33-.35c.13-.07.09-.34.34-.25s.18.39.34.51c-.07.54-.49.63-.61,1.11-.35.16-.42.69-.68.94s-.68,1-1,1.3-.55.5-.61,1c.28.23.7-.08.89-.27a2.86,2.86,0,0,0,1.27-.59c.37-.25.7-.44,1.07-.71s.28-.39.52-.57.57-.43.92-.46a1.33,1.33,0,0,1-.73,1.49c-.1.18-.32.27-.43.43S48.43,13.5,48.28,13.88Zm2.82-10a4.28,4.28,0,0,1,.21,1.28c-.18.3-.66.14-.89,0C50.41,4.42,50.41,3.71,51.1,3.87Z" style="fill:#e6002d"/><path d="M57.52,12.33a2.33,2.33,0,0,1-1.18,1.14c-.2.14-.43.3-.64.42,0,0-.12.2-.13.2s-.36.07-.41.32c-.28-.11-.26.18-.47.16-.23.2-.58.23-.77.48-.12.06-.4-.11-.4.09s-.32,0-.33.16a2.66,2.66,0,0,0-1.22.23,7.61,7.61,0,0,1-1.62-.09,1.87,1.87,0,0,0-.67-.51c0-.25-.08-.52-.27-.61,0-.57-.08-.5,0-1.1,0-.36.27-.86.32-1.21a16.23,16.23,0,0,1,1.07-1.62c.76-1,1.71-2.05,3.24-1.71a8.78,8.78,0,0,1,.6,2.13c-.14,0,0,.31-.07.43s-.52.7-.94.25c0-.14,0-.28,0-.43s.3-.46.27-.94a1.76,1.76,0,0,0-.13-.5.75.75,0,0,0-1-.09c.07.18.07.18-.07.09s-.1.14-.14.16-.14,0-.19,0S52.15,10,52,10c0,.12-.18.16-.27.25s0,.41-.26.27c0,.28-.16.37-.28.51-.07.43-.48.45-.54.93-.17.05-.24.21-.33.34-.14.69-.48.78-.28,1.63a1.38,1.38,0,0,0,.87.86A5,5,0,0,0,53,14.41a5.37,5.37,0,0,0,.68-.25c.47-.14.8-.6,1.27-.75a9.37,9.37,0,0,1,1.22-.73c.38-.25.68-.74,1.1-.94C57.48,11.56,57.7,11.56,57.52,12.33Z" style="fill:#e6002d"/><path d="M64.67,10.4c-.2.4-.42.73-.62,1.11-.06.09-.14.18-.2.26s-.24.24-.26.34,0,.4-.21.34c-.07.54-.48.66-.54,1.2a.26.26,0,0,1-.26.17c0,.15,0,.32-.07.34,0,.3-.24.27-.34.43,0,.62-.35.69-.41,1.19a1.81,1.81,0,0,0-.26.52c-.17-.07-.37.27-.48,0-.14,0-.13-.13-.13-.25a3.55,3.55,0,0,1,.54-2c0-.26.19-.32.26-.5a1,1,0,0,1,.21-.51,5.65,5.65,0,0,1,.54-1.2c.16-.37.3-.76.47-1.21a2.6,2.6,0,0,1,.34-.76,18.28,18.28,0,0,1,.94-2.05c.11-.14.13-.41.27-.52.12-.39.37-.6.47-1,.11-.13.27-.18.27-.43A4.21,4.21,0,0,0,65.8,5c.2-.06.17-.38.34-.43a3,3,0,0,1,.33-.43,3.87,3.87,0,0,0,.27-.43c.23,0,.16-.33.34-.35a7.16,7.16,0,0,1,2.3-1.87c.08,0,.1-.16.19-.18h1.08a1.92,1.92,0,0,0,.61.34,5,5,0,0,0,.6.85,2.52,2.52,0,0,0,.21.86,20.5,20.5,0,0,1-.21,2.49,3.17,3.17,0,0,0-.41,1.28,3.1,3.1,0,0,0-.46,1,13,13,0,0,0-1.15,1.55,1.71,1.71,0,0,0-.74.5c-.14,0-.18.21-.4.17s-.14.29-.33.25a4.48,4.48,0,0,1-2.57.61c0-.18-.24,0-.34-.09S65.3,11,65.13,11Zm2.14,0a9.34,9.34,0,0,0,1.68-.67,10.56,10.56,0,0,0,1.35-1.12,7.14,7.14,0,0,0,1.28-2.82c.22-.25.23-.75.33-1.12s-.07-.36-.12-.5c.24,0,.14-.41.12-.51a3.63,3.63,0,0,0-.53-1.29,1.54,1.54,0,0,1-.6-.34,1.28,1.28,0,0,1-.75,0,.36.36,0,0,0-.19.25c-.27.07-.41.29-.62.43s-.38.38-.67.43c-.68,1.1-1.71,1.76-2.29,3a4.28,4.28,0,0,0-.74,1.53,4.57,4.57,0,0,0-.67,1,5.41,5.41,0,0,1-.61,1.2c0,.46-.18.62-.26.94.22,0,.18-.34.33-.43a1.19,1.19,0,0,1,.34-.42c.14-.4.36-.68.48-1.11A1.59,1.59,0,0,0,65,8.52a1.35,1.35,0,0,0,.34-.43c.17-.34.48-.52.6-.93.28-.19.32-.67.68-.78.21-.29.36-.66.74-.77,0,.16.24.15.26.34A1.27,1.27,0,0,1,67,7c-.12.43-.46.65-.67.95a5.47,5.47,0,0,1-.67.94c0,.27-.22.36-.34.5,0,.32-.35.2-.28.61C65.41,10.42,66.12,10.39,66.81,10.4Z" style="fill:#e6002d"/><path d="M73.43,13.88c0-.13-.47.14-.48.25a11.82,11.82,0,0,1-1.15.51c-.07.2-.2,0-.34.09l-.19.18c-.35.07-.72,0-1,.07-.05-.23-.28-.21-.27-.5a1.71,1.71,0,0,1,0-.78,5,5,0,0,1,.7-1.28c.44-.47.93-1.55,1.39-2,0-.2.2-.27.34-.34,0-.25.21-.25.27-.43a3.68,3.68,0,0,0,.33-.35c.13-.07.09-.34.34-.25s.18.39.34.51c-.07.54-.5.63-.61,1.11-.35.16-.42.69-.69.94s-.67,1-1,1.3-.54.5-.6,1c.28.23.7-.08.88-.27A2.85,2.85,0,0,0,73,13.11c.36-.25.7-.44,1.07-.71s.28-.39.51-.57.58-.43.93-.46a1.34,1.34,0,0,1-.73,1.49c-.1.18-.32.27-.43.43S73.58,13.5,73.43,13.88Zm2.82-10a4.62,4.62,0,0,1,.21,1.28c-.19.3-.66.14-.89,0C75.56,4.42,75.56,3.71,76.25,3.87Z" style="fill:#e6002d"/><path d="M80.37,9.78c-.16.45-.52.61-.61,1.1-.42.13-.52.66-.94.77a2.76,2.76,0,0,1-.88,1.12c.1.11,0,.41.21.43s.06.32.2.34v.11a1.82,1.82,0,0,0,.19.74c0,.61.14,1,.14,1.59v.21c.44,0,.58-.34,1-.34V16c0,.43-.25.5-.47.64a1.83,1.83,0,0,0-.68,1.53v.09a20,20,0,0,1-1.27,4.61,20.45,20.45,0,0,1-1.14,2.48,4.19,4.19,0,0,0-.41.85c-.43.36-.64,1-1.08,1.37a1.65,1.65,0,0,1-.26.34,2.78,2.78,0,0,0-.41.36s0,.12-.07.16-.21.14-.33.26-.19.34-.37.34h0c-.11.23-.34.31-.46.52-.55.12-1.2.6-1.84.6s-.84-.41-1.26-.6c-.1-.14-.06-.27-.14-.43s-.41-.39-.41-.55,0-.11,0-.13h0a3.43,3.43,0,0,1-.36-1.89,4.32,4.32,0,0,1,.36-2v-.07c0-.27.13-.36.13-.62v-.08c.24-.16.24-.62.48-.76a8.55,8.55,0,0,1,2.89-3.42c.07-.14.51-.43.47-.43h0l.13,0c.12,0,.15-.28.25-.36a5.26,5.26,0,0,1,1-.51,2,2,0,0,1,.94-.52c.15,0,.49-.3.74-.43,0,0,.28,0,.34-.09a.12.12,0,0,1,0-.05,9.94,9.94,0,0,1,1.42-.62V16.3a3.7,3.7,0,0,0-.67-2.42c-.23.09-.38.26-.68.26-.15-.17-.36-.26-.46-.51,0-.47.17-1,.55-1h0c.52-.3,1-1.33,1.62-1.53a.64.64,0,0,1,.47-.42A9.72,9.72,0,0,0,79.83,9a.13.13,0,0,0-.12-.09.57.57,0,0,0-.35.16h-.1c-.18,0-.25.09-.44.09-.56.32-1.33.37-1.75.85-.36.05-.55.34-.88.43-.11.1-.13.34-.27.42-.38-.14-1,.06-1.08-.51.06-.29.18-.52.51-.52.08,0,.16,0,.16-.12v0c.68-.6,1.83-.6,2.5-1.19.45,0,.66-.27,1.09-.27h.12a.09.09,0,0,1,.09-.07l.12,0c.09,0,.19-.2.31-.2h.11c.14,0,.32-.16.63-.16s.49.32.49.79S80.52,9.32,80.37,9.78Zm-2.7,7.78a.21.21,0,0,1-.18.09l-.24,0c-.14,0-.15.15-.25.18s-.25,0-.34.09a1,1,0,0,1-.5.34h-.07c-.13,0-.66.52-1.18.52a2.85,2.85,0,0,1-1.08.76s0,.18-.08.18l-.09,0c-.07,0,0,.14-.09.18-.41.28-.76.37-.94.6a1.86,1.86,0,0,1-.94.68c0,.29-.27.18-.27.43-.39.43-.6.85-1,1.19-.1.52-.4.75-.54,1.21a13.66,13.66,0,0,0-.53,1.28v.15c0,.46-.14.87-.14,1.3a2.63,2.63,0,0,0,.94,2.05c.2.14.31.42.6.42a9.11,9.11,0,0,0,1.69-.59c.63-.57,1.2-1.21,1.82-1.79.5-1,1.26-1.59,1.54-2.82.31,0,.28-.66.62-.85a3.08,3.08,0,0,1,.46-1.28c.06-.84.45-1.27.48-2.14a13,13,0,0,0,.46-2.14Z" style="fill:#e6002d"/><path d="M86.23,9.78c-.16.45-.52.61-.61,1.1-.42.13-.52.66-.94.77a2.76,2.76,0,0,1-.88,1.12c.1.11,0,.41.21.43s.06.32.2.34v.11a1.82,1.82,0,0,0,.19.74c0,.61.14,1,.14,1.59v.21c.44,0,.58-.34,1-.34V16c0,.43-.25.5-.47.64a1.83,1.83,0,0,0-.68,1.53v.09a20,20,0,0,1-1.27,4.61A20.45,20.45,0,0,1,82,25.33a4.19,4.19,0,0,0-.41.85c-.43.36-.64,1-1.08,1.37a1.65,1.65,0,0,1-.26.34,2.78,2.78,0,0,0-.41.36s0,.12-.07.16-.21.14-.34.26-.18.34-.36.34h0c-.11.23-.34.31-.47.52-.54.12-1.19.6-1.83.6s-.84-.41-1.26-.6c-.1-.14-.06-.27-.14-.43s-.41-.39-.41-.55,0-.11,0-.13h0a3.43,3.43,0,0,1-.36-1.89,4.32,4.32,0,0,1,.36-2v-.07c0-.27.13-.36.13-.62v-.08c.24-.16.24-.62.48-.76a8.55,8.55,0,0,1,2.89-3.42c.07-.14.51-.43.47-.43h0l.13,0c.12,0,.15-.28.25-.36a5.26,5.26,0,0,1,1-.51,2,2,0,0,1,.94-.52c.15,0,.49-.3.74-.43,0,0,.28,0,.34-.09a.12.12,0,0,1,0-.05,9.94,9.94,0,0,1,1.42-.62V16.3a3.7,3.7,0,0,0-.67-2.42c-.23.09-.38.26-.68.26-.15-.17-.36-.26-.46-.51,0-.47.17-1,.55-1h0c.52-.3,1-1.33,1.62-1.53a.62.62,0,0,1,.47-.42A9.72,9.72,0,0,0,85.69,9a.13.13,0,0,0-.12-.09.57.57,0,0,0-.35.16h-.1c-.18,0-.25.09-.44.09-.56.32-1.33.37-1.75.85-.36.05-.55.34-.88.43-.12.1-.13.34-.27.42-.38-.14-1,.06-1.08-.51.06-.29.18-.52.51-.52.08,0,.16,0,.16-.12v0c.68-.6,1.83-.6,2.5-1.19.45,0,.66-.27,1.09-.27h.12a.09.09,0,0,1,.09-.07l.12,0c.09,0,.19-.2.3-.2h.12c.14,0,.32-.16.63-.16s.49.32.49.79S86.38,9.32,86.23,9.78Zm-2.7,7.78a.21.21,0,0,1-.18.09l-.24,0c-.14,0-.15.15-.25.18s-.25,0-.34.09a1,1,0,0,1-.5.34H82c-.13,0-.66.52-1.18.52a2.85,2.85,0,0,1-1.08.76s0,.18-.08.18l-.09,0c-.07,0,0,.14-.1.18-.4.28-.75.37-.93.6a1.88,1.88,0,0,1-.95.68c0,.29-.26.18-.26.43-.39.43-.6.85-1,1.19-.1.52-.4.75-.54,1.21a13.66,13.66,0,0,0-.53,1.28v.15c0,.46-.14.87-.14,1.3a2.63,2.63,0,0,0,.94,2.05c.19.14.31.42.6.42a8.76,8.76,0,0,0,1.68-.59c.64-.57,1.21-1.21,1.83-1.79.5-1,1.26-1.59,1.54-2.82.31,0,.28-.66.62-.85a3.08,3.08,0,0,1,.46-1.28c.06-.84.45-1.27.48-2.14a13,13,0,0,0,.46-2.14Z" style="fill:#e6002d"/><path d="M95,12.13c-.24.16-.51.61-.73.75s-.18.27-.42.43-.42.39-.66.55a3.47,3.47,0,0,0-.41.16c-.14.11-.16.19-.33.18-.24.3-.68.21-.87.57-.49.07-.83,0-1.29.14,0-.18-.28,0-.39-.09,0-.21-.27-.12-.29-.34-.12,0,0-.37-.19-.34s-.25.22-.41.25a3,3,0,0,0-.67.43,7,7,0,0,0-.67.36,2.49,2.49,0,0,1-.87.25s-.2-.18-.34-.09a2,2,0,0,1-.34-1.71,2.36,2.36,0,0,0,.34-1,8.78,8.78,0,0,0,.53-.85c.34-.54.79-.95,1.15-1.44a2.06,2.06,0,0,0,.61-.7c.35,0,.44-.34.67-.5s.6-.21.74-.51c.62-.11,1-.5,1.61-.61.49.13.71.75.54,1.46-.11.16-.2.36-.4.43,0,.18-.14.12-.14.25s-.16.07-.26.09c-.25-.45.18-.64.19-1-.33-.21-.57.18-1,.09a3,3,0,0,1-.67.34c-.19.14-.31.38-.53.43-.38.28-.63.75-1.08.94a10.18,10.18,0,0,1-.6.95c-.17.07-.21.3-.34.42s-.14.4-.34.43a9.22,9.22,0,0,0-.4,1.53c.4.31.77-.14,1.15-.16,0-.16.11-.1.19-.18a1.08,1.08,0,0,0,.2-.16c.12-.08.42-.08.41-.35.16,0,.32,0,.4-.09s.13-.29.34-.25c0-.36.24-.55.26-.94.15-.2.34-.32.34-.68.55-.23.56-1.12,1.35-1,.17.09.17.37.26.51,0,.54-.32.55-.33,1a1.64,1.64,0,0,0-.46.67,1.21,1.21,0,0,0-.41.43c-.1.12-.37.18-.27.52-.07.3.3.09.34.25.11-.08.28,0,.4-.08s.4,0,.61-.16.46-.21.67-.33l1.21-.68A1.82,1.82,0,0,1,94,12.2c.28-.19.52-.44.84-.67A3,3,0,0,0,95,12.13Z" style="fill:#e6002d"/><path d="M103.21,13A6.2,6.2,0,0,1,100.09,15a3,3,0,0,1-2.23-.66c-.32-.05-.44-.53-.41-.85a3.47,3.47,0,0,1,0-1.21.14.14,0,0,0,0-.09c0-.18.27-1,.44-1.12.07-.25.14-.52.33-.61.16-.48.54-.69.73-1.1a3,3,0,0,0,1-.79c.49.06.69-.26,1.15-.24a.89.89,0,0,1,.2.76c0,.14,0,.11-.06.18s0,.43-.14.59c0,.69-.52,1.46-.56,2.08-.2.12-.34.5-.46.69s-.32.27-.41.5c-.32.15-.49.47-.81.61a1.84,1.84,0,0,0,.74.41h.14a4.84,4.84,0,0,0,2.44-1.2,4,4,0,0,1,.53-.37,2.31,2.31,0,0,1,.54-.23A3.89,3.89,0,0,1,103.21,13ZM100,9.48c-.41.28-.63.82-1,1a7.34,7.34,0,0,0-.9,2.51,1,1,0,0,0,.55-.18,2.69,2.69,0,0,0,.41-.33,10.85,10.85,0,0,0,1.22-2.18,1.9,1.9,0,0,0,.28-.85c0-.06,0-.16-.07-.16C100.33,9.48,100.14,9.41,100,9.48Z" style="fill:#e6002d"/><path d="M111.08,10.4c-.2.4-.42.73-.62,1.11,0,.09-.14.18-.19.26s-.24.24-.27.34,0,.4-.21.34c-.07.54-.48.66-.53,1.2a.28.28,0,0,1-.27.17c0,.15,0,.32-.07.34,0,.3-.24.27-.34.43,0,.62-.35.69-.4,1.19a1.6,1.6,0,0,0-.27.52c-.17-.07-.37.27-.48,0-.14,0-.12-.13-.12-.25a3.54,3.54,0,0,1,.53-2c0-.26.2-.32.27-.5a.83.83,0,0,1,.21-.51,5.61,5.61,0,0,1,.53-1.2c.17-.37.31-.76.48-1.21a2.34,2.34,0,0,1,.33-.76,20.26,20.26,0,0,1,.94-2.05c.11-.14.13-.41.27-.52.13-.39.38-.6.48-1,.11-.13.26-.18.26-.43a3.85,3.85,0,0,0,.6-.85c.2-.06.17-.38.34-.43a3.07,3.07,0,0,1,.34-.43,3.78,3.78,0,0,0,.26-.43c.23,0,.16-.33.34-.35a7.16,7.16,0,0,1,2.3-1.87c.09,0,.1-.16.2-.18h1.08a1.77,1.77,0,0,0,.6.34,5,5,0,0,0,.6.85,2.52,2.52,0,0,0,.21.86,17.14,17.14,0,0,1-.21,2.49,3.17,3.17,0,0,0-.4,1.28,2.91,2.91,0,0,0-.47,1,14.15,14.15,0,0,0-1.15,1.55,1.71,1.71,0,0,0-.74.5c-.14,0-.18.21-.39.17s-.14.29-.34.25a4.46,4.46,0,0,1-2.57.61c0-.18-.23,0-.33-.09s-.17-.18-.34-.16C111.39,10.8,111.23,10.6,111.08,10.4Zm2.14,0a9.45,9.45,0,0,0,1.69-.67,11.2,11.2,0,0,0,1.34-1.12,6.87,6.87,0,0,0,1.28-2.82,3.07,3.07,0,0,0,.34-1.12c0-.28-.07-.36-.13-.5.24,0,.14-.41.13-.51a3.83,3.83,0,0,0-.54-1.29,1.54,1.54,0,0,1-.6-.34A1.24,1.24,0,0,1,116,2a.35.35,0,0,0-.2.25c-.27.07-.41.29-.62.43s-.38.38-.67.43c-.67,1.1-1.71,1.76-2.29,3a4.28,4.28,0,0,0-.74,1.53,5.37,5.37,0,0,0-.67,1,5.38,5.38,0,0,1-.6,1.2c0,.46-.19.62-.27.94.22,0,.18-.34.34-.43a1.07,1.07,0,0,1,.33-.42c.14-.4.37-.68.48-1.11a1.42,1.42,0,0,0,.34-.35,1.33,1.33,0,0,0,.33-.43c.17-.34.48-.52.6-.93.29-.19.33-.67.68-.78.21-.29.36-.66.74-.77.06.16.24.15.27.34a1.27,1.27,0,0,1-.61,1c-.12.43-.46.65-.67.95a5.47,5.47,0,0,1-.67.94c0,.27-.21.36-.34.5,0,.32-.35.2-.28.61C111.82,10.42,112.54,10.39,113.22,10.4Z" style="fill:#e6002d"/><path d="M125.64,12.13c-.23.16-.5.61-.72.75s-.19.27-.42.43-.43.39-.66.55a3.47,3.47,0,0,0-.41.16c-.14.11-.17.19-.34.18-.24.3-.67.21-.87.57-.49.07-.82,0-1.29.14,0-.18-.28,0-.39-.09,0-.21-.27-.12-.28-.34-.13,0,0-.37-.2-.34s-.25.22-.4.25a3,3,0,0,0-.68.43c-.09.09-.46.18-.67.36a2.43,2.43,0,0,1-.87.25s-.19-.18-.33-.09a1.91,1.91,0,0,1-.34-1.71,2.36,2.36,0,0,0,.34-1c.21-.23.33-.58.53-.85a18.14,18.14,0,0,1,1.15-1.44,2,2,0,0,0,.6-.7c.35,0,.45-.34.67-.5s.61-.21.75-.51c.61-.11,1-.5,1.61-.61.49.13.7.75.53,1.46-.11.16-.19.36-.39.43,0,.18-.14.12-.14.25s-.17.07-.27.09c-.25-.45.19-.64.2-1-.34-.21-.58.18-1,.09a3.25,3.25,0,0,1-.67.34c-.2.14-.31.38-.54.43-.38.28-.63.75-1.08.94a10.18,10.18,0,0,1-.6.95c-.17.07-.21.3-.34.42s-.14.4-.33.43a9.21,9.21,0,0,0-.41,1.53c.41.31.77-.14,1.15-.16,0-.16.11-.1.2-.18a1.46,1.46,0,0,0,.19-.16c.13-.08.42-.08.41-.35.17,0,.32,0,.41-.09s.12-.29.33-.25a8.59,8.59,0,0,0,.27-.94c.14-.2.34-.32.34-.68.54-.23.56-1.12,1.34-1,.17.09.17.37.27.51,0,.54-.32.55-.34,1a1.74,1.74,0,0,0-.46.67,1.41,1.41,0,0,0-.41.43c-.09.12-.36.18-.26.52-.07.3.29.09.33.25.12-.08.28,0,.41-.08s.39,0,.6-.16.47-.21.68-.33c.4-.24.8-.45,1.2-.68a2.08,2.08,0,0,1,.56-.52c.28-.19.52-.44.84-.67A3,3,0,0,0,125.64,12.13Z" style="fill:#e6002d"/><path d="M123.55,13.88a5.09,5.09,0,0,0,0-.84c.57-.2,1.22-1.07,1.7-1.39.59-.48,1.39-1.39,2-1.8.34-.25.63-.55,1-.8a2.31,2.31,0,0,1,.94-.59,2.8,2.8,0,0,0,.27.43,1.24,1.24,0,0,1-.2.77c-.14.33-.3.64-.47,1,0,0,0,.14,0,.16a11.32,11.32,0,0,0-.83,2,1.39,1.39,0,0,0-.46.76c.15.25.39-.12.67,0,.59-.18,1.22-.39,1.81-.59a20.28,20.28,0,0,0,2-1.24c0,.37.06.84,0,.73-.15.07-.36.37-.5.44s-.17.16-.21.16a.93.93,0,0,0-.2.09c-.22.13-.32.32-.5.45a.64.64,0,0,1-.21.09,3.42,3.42,0,0,1-.47.23c-.15.05-.19.11-.4.18a2.74,2.74,0,0,0-.94.41,9.28,9.28,0,0,1-2.43.49c-.27,0-.52-.23-.81-.24a1.67,1.67,0,0,0-.68-.61,1.3,1.3,0,0,1,0-.73c-.21-.07-.21.12-.33.16s-.25,0-.27.18C123.76,13.82,123.55,14,123.55,13.88Zm3.14-.8a5.08,5.08,0,0,0,.89-1.68c.18-.09.24-.69.4-.78,0-.2,0-.32.14-.34s0-.21-.14-.18-.11.14-.12.25c-.49.16-.56.82-1.07,1A19.15,19.15,0,0,1,125,13c.34.36.55.82,1.14.73A1.06,1.06,0,0,0,126.69,13.08Z" style="fill:#e6002d"/><path d="M136.34,13.61c-.34.2-.49.43-.72.57a3,3,0,0,1-.6.44,1.4,1.4,0,0,0-.29.16c-.09,0-.1.11-.27.16a3.4,3.4,0,0,1-.46.18c-.21.07,0,0-.28,0a.92.92,0,0,0-.41.18,3.32,3.32,0,0,0-1.21-.09c-.08-.18-.29-.2-.47-.27A3.47,3.47,0,0,1,131,13.7a4.27,4.27,0,0,1,.15-1.36,7.91,7.91,0,0,1,.46-1.46,19.84,19.84,0,0,1,1-2.13c-.1-.14-.34-.13-.55-.09l-.79.18c-.44.05-1,.32-1.16-.27,0-.34.36-.18.48-.34s.44-.07.53-.25c.71-.05,1.35-.18,2-.26.12,0,.21-.17.27-.25s0-.18.07-.25.39-.45.53-.7c.28-.43.49-.91.75-1.37.23-.21.21-.75.67-.68.28,0,.06.61.21.77a13.45,13.45,0,0,0-1.15,2.31c0,.18.34,0,.48.09,1.55-.17,3.21-.26,4.77-.42.16.1.4.25.23.51a5.49,5.49,0,0,1-.63.07,7.26,7.26,0,0,1-1.08.09c-.29.22-.56.07-.94.25a1.54,1.54,0,0,1-.67-.07c-.46.27-.49,0-1,.16a.41.41,0,0,1-.4,0,1.62,1.62,0,0,1-.4.18c-.17,0-.51-.36-.75,0,0,.18-.23,0-.33.09-.16.5-.52.75-.68,1.28-.33.3-.3.82-.67,1.1,0,.24-.18.34-.27.52s-.09.46-.26.59a3.68,3.68,0,0,0-.07,1.89c.15.14.25.28.4.33s0,.08.06.09c.45.27,1.07,0,1.56-.09a1.66,1.66,0,0,0,.77-.39l.39-.25c.11-.07.2-.19.32-.26a2.17,2.17,0,0,1,.41-.09c.07-.2.32-.14.52-.18C136.48,13.25,136.21,13.41,136.34,13.61Z" style="fill:#e6002d"/><path d="M144.44,12.13c-.24.16-.5.61-.73.75s-.18.27-.42.43-.42.39-.66.55-.28.07-.4.16-.17.19-.34.18c-.24.3-.67.21-.87.57-.49.07-.83,0-1.29.14,0-.18-.28,0-.39-.09,0-.21-.27-.12-.28-.34-.13,0,0-.37-.2-.34s-.25.22-.4.25a3,3,0,0,0-.68.43,7,7,0,0,0-.67.36,2.49,2.49,0,0,1-.87.25s-.2-.18-.34-.09a1.94,1.94,0,0,1-.33-1.71,2.52,2.52,0,0,0,.33-1c.21-.23.34-.58.54-.85a18.14,18.14,0,0,1,1.15-1.44,2.15,2.15,0,0,0,.6-.7c.35,0,.45-.34.67-.5s.6-.21.74-.51c.62-.11,1-.5,1.62-.61.49.13.7.75.53,1.46-.11.16-.2.36-.39.43,0,.18-.14.12-.14.25s-.17.07-.27.09c-.25-.45.18-.64.2-1-.34-.21-.58.18-1,.09a3.32,3.32,0,0,1-.68.34c-.19.14-.3.38-.53.43-.38.28-.63.75-1.08.94a10.18,10.18,0,0,1-.6.95c-.17.07-.21.3-.34.42s-.14.4-.33.43a8.33,8.33,0,0,0-.41,1.53c.41.31.77-.14,1.15-.16,0-.16.11-.1.2-.18a1.46,1.46,0,0,0,.19-.16c.13-.08.42-.08.41-.35.17,0,.32,0,.41-.09s.12-.29.33-.25a8.59,8.59,0,0,0,.27-.94c.14-.2.33-.32.33-.68.55-.23.57-1.12,1.35-1,.17.09.17.37.27.51,0,.54-.33.55-.34,1a1.64,1.64,0,0,0-.46.67,1.41,1.41,0,0,0-.41.43c-.1.12-.36.18-.27.52-.06.3.3.09.34.25.11-.08.28,0,.41-.08s.39,0,.6-.16.46-.21.67-.33l1.21-.68a1.94,1.94,0,0,1,.56-.52c.28-.19.52-.44.84-.67A3,3,0,0,0,144.44,12.13Z" style="fill:#e6002d"/></svg>